<svg width="1920" height="138" viewBox="0 0 1920 138" fill="none" xmlns="http://www.w3.org/2000/svg">
<path d="M0 132.007C0.33722 132.147 0.697372 132.303 1.11471 132.498C8.08132 129.982 9.64798 131.251 11.9463 132.447C16.2488 132.355 15.8034 136.497 20.5274 133.572C28.4882 129.696 23.136 127.896 27.4622 131.731C32.902 127.467 35.5184 133.51 37.8009 130.268C38.4529 133.602 43.2247 130.064 45.7219 127.323C50.239 130.606 52.9908 122.353 55.8378 125.206C59.4166 127.896 63.0908 120.921 66.5184 125.36C69.962 127.323 72.0456 126.392 75.4971 126.392C78.5272 126.576 81.5492 125.994 84.5792 128.919C87.6172 129.368 90.6472 130.77 93.6772 131.414C97.2639 135.75 100.962 137.571 104.763 132.948C106.911 131.025 108.565 135.617 111.054 129.594C112.82 122.608 114.601 130.524 116.374 129.236C119.444 129.522 122.522 128.448 125.616 127.589C130.117 125.349 133.37 126.413 137.776 125.871C143.175 124.971 146.818 125.492 152.353 124.265C158.763 123.682 161.833 125.942 166.843 129.256C169.292 131.251 172.219 131.353 175.44 132.692C175.965 123.662 175.377 134.451 176.665 123.959C179.655 128.029 182.765 124.153 185.882 124.521C189 127.374 192.125 126.126 195.155 124.347C196.117 128.673 198.884 120.931 200.022 124.459C202.893 122.558 205.533 129.368 208.214 121.525C210.902 117.28 213.621 120.481 216.652 118.518C218.17 120.747 219.514 115.532 221.009 118.221C226.52 119.939 229.4 118.681 233.989 120.533C237.209 125.298 240.573 120.042 243.977 125.237C247.381 127.999 250.825 135.801 254.213 129.4L254.268 129.35C255.795 127.997 256.792 127.114 258.34 131.761C262.499 133.163 267.637 132.713 271.891 132.672C275.677 134.37 274.269 136.292 278.627 134.533C283.757 133.684 288.887 142.756 294.008 134.513C297.738 136.998 301.699 132.498 305.198 134.789C309.476 131.035 313.763 137.418 318.05 134.615C322.294 135.718 326.67 135.701 330.909 134.564C334.329 136.752 336.929 137.745 339.776 132.754C341.073 133.03 342.425 128.335 343.888 130.616C346.847 130.268 351.053 130.412 354.203 129.972C358.975 125.216 363.857 119.786 368.581 128.643C371.238 133.132 370.729 126.352 372.693 126.945C375.135 122.148 376.837 125.994 379.66 124.296C383.381 134.267 387.294 120.675 391.072 121.217C396.48 122.69 402.214 126.914 407.367 122.24C412.425 126.484 417.944 126.934 423.289 126.444C425.889 121.115 427.154 127.569 429.675 127.446C432.418 126.955 434.749 126.597 437.778 130.299C443.568 132.079 447.743 132.866 454.066 134.554C459.004 130.698 463.951 134.615 468.89 134.513C472.826 137.816 476.897 137.757 480.497 136.843C480.834 136.984 481.259 132.869 481.676 133.064C488.643 130.548 489.482 131.251 491.781 132.447C496.083 132.355 495.638 136.497 500.362 133.572C508.323 129.696 502.97 127.896 507.296 131.731C512.737 127.467 515.353 133.51 517.636 130.268C518.288 133.602 523.06 130.064 525.556 127.323C530.074 130.606 532.825 122.353 535.673 125.206C539.251 127.896 542.925 120.921 546.353 125.36C549.796 127.323 551.88 126.392 555.331 126.392C558.362 126.576 561.384 125.994 564.414 128.919C567.452 129.368 570.481 130.77 573.512 131.414C577.099 135.75 580.797 137.571 584.598 132.948C586.746 131.025 588.399 135.617 590.889 129.594C592.654 122.608 594.436 130.524 596.209 129.236C599.279 129.522 602.356 128.448 605.45 127.589C609.951 125.349 613.204 126.413 617.61 125.871C623.01 124.971 626.652 125.492 632.187 124.265C638.598 123.682 641.667 125.942 646.677 129.256C649.127 131.251 652.053 131.353 655.274 132.692C655.799 123.662 655.211 134.451 656.499 123.959C659.489 128.029 662.599 124.153 665.716 124.521C668.834 127.374 671.959 126.126 674.989 124.347C675.951 128.673 678.72 120.931 679.857 124.459C682.727 122.558 685.367 129.368 688.048 121.525C690.736 117.28 693.455 120.481 696.486 118.518C698.005 120.747 699.349 115.532 700.844 118.221C706.355 119.939 709.234 118.681 713.823 120.533C717.044 125.298 720.408 120.042 723.811 125.237C727.215 127.999 730.659 135.801 734.047 129.4L734.102 129.35C735.63 127.997 736.626 127.114 738.174 131.761C742.334 133.163 747.471 132.713 751.726 132.672C755.511 134.37 754.103 136.292 758.462 134.533C763.592 133.684 768.721 142.756 773.843 134.513C777.572 136.998 781.533 132.498 785.032 134.789C789.311 131.035 793.597 137.418 797.884 134.615C802.129 135.718 806.504 135.701 810.744 134.564C814.163 136.752 816.763 137.745 819.611 132.754C820.907 133.03 822.259 128.335 823.722 130.616C826.681 130.268 830.888 130.412 834.037 129.972C838.809 125.216 843.692 119.786 848.415 128.643C851.072 133.132 850.563 126.352 852.528 126.945C854.969 122.148 856.671 125.994 859.494 124.296C863.216 134.267 867.129 120.675 870.906 121.217C876.314 122.69 882.048 126.914 887.201 122.24C892.259 126.484 897.779 126.934 903.123 126.444C905.723 121.115 906.988 127.569 909.509 127.446C912.253 126.955 914.583 126.597 917.613 130.299C923.403 132.079 927.578 132.866 933.9 134.554C938.839 130.698 943.785 134.615 948.724 134.513C952.66 137.816 956.731 137.757 960.332 136.843C960.669 136.984 962.015 132.869 962.432 133.064C969.398 130.548 969.316 131.251 971.615 132.447C975.918 132.355 975.472 136.497 980.196 133.572C988.16 129.696 982.805 127.896 987.129 131.731C992.571 127.467 995.186 133.51 997.47 130.268C998.124 133.602 1002.89 130.064 1005.39 127.323C1009.91 130.606 1012.66 122.353 1015.51 125.206C1019.08 127.896 1022.76 120.921 1026.19 125.36C1029.63 127.323 1031.72 126.392 1035.17 126.392C1038.2 126.576 1041.22 125.994 1044.25 128.919C1047.29 129.368 1050.32 130.77 1053.35 131.414C1056.93 135.75 1060.63 137.571 1064.44 132.948C1066.58 131.025 1068.24 135.617 1070.72 129.594C1072.49 122.608 1074.27 130.524 1076.05 129.236C1079.11 129.522 1082.19 128.448 1085.28 127.589C1089.79 125.349 1093.04 126.413 1097.45 125.871C1102.84 124.971 1106.49 125.492 1112.03 124.265C1118.43 123.682 1121.5 125.942 1126.51 129.256C1128.96 131.251 1131.89 131.353 1135.11 132.692C1135.64 123.662 1135.05 134.451 1136.34 123.959C1139.32 128.029 1142.43 124.153 1145.55 124.521C1148.67 127.374 1151.8 126.126 1154.83 124.347C1155.78 128.673 1158.56 120.931 1159.69 124.459C1162.56 122.558 1165.21 129.368 1167.88 121.525C1170.57 117.28 1173.29 120.481 1176.32 118.518C1177.84 120.747 1179.18 115.532 1180.68 118.221C1186.19 119.939 1189.06 118.681 1193.66 120.533C1196.87 125.298 1200.24 120.042 1203.64 125.237C1207.05 127.999 1210.49 135.801 1213.88 129.4L1213.94 129.35C1215.47 127.997 1216.46 127.114 1218.01 131.761C1222.17 133.163 1227.31 132.713 1231.56 132.672C1235.35 134.37 1233.94 136.292 1238.29 134.533C1243.42 133.684 1248.55 142.756 1253.67 134.513C1257.41 136.998 1261.37 132.498 1264.87 134.789C1269.14 131.035 1273.43 137.418 1277.72 134.615C1281.96 135.718 1286.34 135.701 1290.58 134.564C1294 136.752 1296.59 137.745 1299.45 132.754C1300.74 133.03 1302.09 128.335 1303.56 130.616C1306.51 130.268 1310.72 130.412 1313.87 129.972C1318.64 125.216 1323.53 119.786 1328.25 128.643C1330.91 133.132 1330.4 126.352 1332.36 126.945C1334.8 122.148 1336.5 125.994 1339.33 124.296C1343.05 134.267 1346.97 120.675 1350.74 121.217C1356.15 122.69 1361.88 126.914 1367.04 122.24C1372.1 126.484 1377.61 126.934 1382.96 126.444C1385.56 121.115 1386.82 127.569 1389.34 127.446C1392.09 126.955 1394.42 126.597 1397.45 130.299C1403.24 132.079 1407.41 132.866 1413.74 134.554C1418.67 130.698 1423.62 134.615 1428.56 134.513C1432.49 137.816 1436.57 137.757 1440.17 136.843C1440.51 136.984 1440.93 133.377 1441.34 133.572C1448.32 131.056 1449.15 131.251 1451.45 132.447C1455.76 132.355 1455.3 136.497 1460.03 133.572C1467.99 129.696 1462.63 127.896 1466.96 131.731C1472.41 127.467 1475.02 133.51 1477.3 130.268C1477.96 133.602 1482.73 130.064 1485.22 127.323C1489.75 130.606 1492.5 122.353 1495.34 125.206C1498.92 127.896 1502.59 120.921 1506.03 125.36C1509.46 127.323 1511.55 126.392 1515 126.392C1518.03 126.576 1521.05 125.994 1524.08 128.919C1527.12 129.368 1530.15 130.77 1533.18 131.414C1536.76 135.75 1540.47 137.571 1544.27 132.948C1546.42 131.025 1548.07 135.617 1550.56 129.594C1552.33 122.608 1554.1 130.524 1555.88 129.236C1558.95 129.522 1562.02 128.448 1565.12 127.589C1569.62 125.349 1572.87 126.413 1577.28 125.871C1582.68 124.971 1586.33 125.492 1591.86 124.265C1598.27 123.682 1601.34 125.942 1606.34 129.256C1608.79 131.251 1611.72 131.353 1614.95 132.692C1615.47 123.662 1614.88 134.451 1616.17 123.959C1619.15 128.029 1622.27 124.153 1625.39 124.521C1628.5 127.374 1631.63 126.126 1634.66 124.347C1635.62 128.673 1638.39 120.931 1639.52 124.459C1642.4 122.558 1645.04 129.368 1647.72 121.525C1650.41 117.28 1653.12 120.481 1656.15 118.518C1657.67 120.747 1659.02 115.532 1660.51 118.221C1666.03 119.939 1668.9 118.681 1673.49 120.533C1676.71 125.298 1680.08 120.042 1683.48 125.237C1686.88 127.999 1690.33 135.801 1693.72 129.4L1693.77 129.35C1695.3 127.997 1696.29 127.114 1697.84 131.761C1702 133.163 1707.14 132.713 1711.4 132.672C1715.18 134.37 1713.77 136.292 1718.13 134.533C1723.26 133.684 1728.39 142.756 1733.51 134.513C1737.25 136.998 1741.21 132.498 1744.7 134.789C1748.98 131.035 1753.27 137.418 1757.55 134.615C1761.8 135.718 1766.17 135.701 1770.42 134.564C1773.83 136.752 1776.43 137.745 1779.28 132.754C1780.57 133.03 1781.93 128.335 1783.39 130.616C1786.35 130.268 1790.55 130.412 1793.7 129.972C1798.47 125.216 1803.36 119.786 1808.09 128.643C1810.74 133.132 1810.23 126.352 1812.19 126.945C1814.63 122.148 1816.34 125.994 1819.17 124.296C1822.89 134.267 1826.8 120.675 1830.58 121.217C1835.98 122.69 1841.72 126.914 1846.87 122.24C1851.93 126.484 1857.45 126.934 1862.8 126.444C1865.39 121.115 1866.65 127.569 1869.18 127.446C1871.92 126.955 1874.25 126.597 1877.28 130.299C1883.07 132.079 1887.24 132.866 1893.57 134.554C1898.51 130.698 1903.45 134.615 1908.4 134.513C1912.33 137.816 1916.4 137.757 1920 136.843V3.82156C1919.72 3.92505 1919.44 4.02914 1919.13 4.13665C1916.54 2.848 1911.84 2.68442 1906.76 4.14682C1905.15 1.50814 1905.49 5.86506 1900.98 4.0548C1894.8 3.98324 1895.19 3.45146 1896.54 6.96955C1897.53 7.06157 1895.84 8.53426 1894.48 9.09669C1886.01 6.56042 1884.6 8.28883 1885.02 9.33201C1887.45 13.9957 1880.09 7.66503 1875.52 9.3218C1870.17 9.63883 1867.85 8.76952 1864.14 9.40359C1859.56 7.56273 1857.35 8.70825 1854.06 6.68308C1853.54 8.46271 1852.92 6.31499 1852.18 4.24902C1851.07 3.59458 1848.73 4.06497 1847.56 4.13665C1843.03 7.84907 1841.42 7.63428 1837.25 8.90246C1833.56 11.8991 1829.76 9.93544 1826.12 9.67977C1822.66 9.10697 1820.98 10.4467 1817.21 11.2649C1814.1 9.73092 1810.98 13.8014 1807.86 11.2649C1803.59 15.1206 1798.11 18.516 1794.04 11.0911C1792.04 13.0955 1790.92 9.4138 1788.73 9.15819C1787.15 8.38097 1785.13 6.94909 1783.49 9.22971C1780.72 11.5821 1777.95 13.1774 1775.17 9.22971C1770.88 8.49334 1766.54 7.26619 1762.26 9.20928C1758.3 10.4264 1755.17 10.4264 1751.32 11.2854C1747.17 9.49568 1742.65 13.0138 1738.7 10.2524C1734.85 9.67977 1730.28 13.0241 1727.03 8.2582C1724.31 4.60704 1721.86 5.415 1718.6 3.32869C1716.93 0.229772 1715.09 1.51842 1713.4 2.11159C1711.3 -1.35541 1709.9 2.18315 1707.67 0.853694C1704.57 -0.00888742 1701.39 -0.21961 1698.24 0.229772C1697.65 0.199137 1696.73 -0.363397 1695.49 2.17298C1694.2 0.700287 1692.92 2.32638 1691.64 2.98094C1688.46 2.08096 1685.4 3.81954 1682.25 3.10372C1677.82 1.78431 1673.67 6.95926 1669.02 4.14682C1664.59 5.00588 1660.16 4.43317 1655.74 4.14682C1651.6 4.37179 1647.25 7.01048 1643.15 4.19792C1640.13 10.2831 1637.63 -0.199699 1634.73 2.06049C1629.41 -2.23493 1623.06 9.74104 1617.87 2.90927C1614.43 4.82184 1611.05 3.65597 1607.68 2.99112C1604.31 4.87293 1600.96 -0.823621 1597.55 2.06049C1594.92 -0.97703 1592.15 0.741211 1589.53 2.09113C1586.67 1.58998 1580.01 5.0468 1579.31 6.27407C1580.7 9.28086 1584.71 12.8605 1585.33 12.5843C1580.03 17.2785 1574.1 11.6741 1568.88 12.9422C1565.86 15.0592 1562.43 16.0009 1558.99 15.6524C1555.68 13.5252 1552.34 14.6502 1548.94 17.4525C1546.11 10.8354 1543.76 22.0649 1541.13 15.7138C1538.62 19.8047 1534.99 11.398 1532.19 14.1592C1530.33 14.7216 1529.95 10.5389 1528.36 15.7546C1525.51 19.9683 1523.81 20.2342 1521.61 15.3252C1517.21 17.2785 1515.94 21.7376 1512.1 15.1308C1509.32 18.7922 1508.01 19.2627 1505.33 14.2718C1501.33 10.0684 1497.59 19.866 1494.96 13.6785C1489.44 6.24332 1486.3 14.2922 1485.29 9.15819C1480.25 7.66503 1483.69 8.56502 1477.88 9.05587C1476.78 5.82414 1471.84 6.68308 1468.47 6.97984C1467.31 9.95586 1462.7 9.50589 1459.79 6.04911C1457.84 6.38667 1451.43 5.41501 1450.91 6.14124C1443.45 7.36838 1445.11 10.0888 1444.13 10.0991C1443.22 11.7925 1443.16 3.71202 1440.17 3.82156C1439.89 3.92505 1439.6 4.02914 1439.3 4.13665C1436.7 2.848 1432.01 2.68442 1426.92 4.14682C1425.31 1.50814 1425.65 5.86506 1421.15 4.0548C1414.96 3.98324 1415.36 3.45146 1416.7 6.96955C1417.7 7.06157 1416 8.53426 1414.65 9.09669C1406.18 6.56042 1404.77 8.28883 1405.18 9.33201C1407.61 13.9957 1400.26 7.66503 1395.69 9.3218C1390.34 9.63883 1388.02 8.76952 1384.3 9.40359C1379.73 7.56273 1377.52 8.70825 1374.22 6.68308C1373.71 8.46271 1373.08 6.31499 1372.34 4.24902C1371.24 3.59458 1368.89 4.06497 1367.73 4.13665C1363.2 7.84907 1361.59 7.63428 1357.42 8.90246C1353.72 11.8991 1349.92 9.93544 1346.28 9.67977C1342.83 9.10697 1341.15 10.4467 1337.38 11.2649C1334.27 9.73092 1331.14 13.8014 1328.02 11.2649C1323.76 15.1206 1318.27 18.516 1314.21 11.0911C1312.2 13.0955 1311.09 9.4138 1308.9 9.15819C1307.31 8.38097 1305.3 6.94909 1303.66 9.22971C1300.89 11.5821 1298.11 13.1774 1295.33 9.22971C1291.04 8.49334 1286.7 7.26619 1282.42 9.20928C1278.46 10.4264 1275.34 10.4264 1271.48 11.2854C1267.34 9.49568 1262.82 13.0138 1258.87 10.2524C1255.02 9.67977 1250.45 13.0241 1247.2 8.2582C1244.47 4.60704 1242.02 5.415 1238.76 3.32869C1237.1 0.229772 1235.26 1.51842 1233.56 2.11159C1231.46 -1.35541 1230.06 2.18315 1227.83 0.853694C1224.74 -0.00888742 1221.55 -0.21961 1218.4 0.229772C1217.81 0.199137 1216.89 -0.363397 1215.66 2.17298C1214.37 0.700287 1213.09 2.32638 1211.8 2.98094C1208.62 2.08096 1205.57 3.81954 1202.42 3.10372C1197.99 1.78431 1193.83 6.95926 1189.18 4.14682C1184.76 5.00588 1180.33 4.43317 1175.91 4.14682C1171.76 4.37179 1167.42 7.01048 1163.32 4.19792C1160.3 10.2831 1157.79 -0.199699 1154.9 2.06049C1149.58 -2.23493 1143.22 9.74104 1138.04 2.90927C1134.6 4.82184 1131.22 3.65597 1127.85 2.99112C1124.48 4.87293 1121.12 -0.823621 1117.72 2.06049C1115.08 -0.97703 1112.32 0.741211 1109.7 2.09113C1106.83 1.58998 1100.17 5.0468 1099.47 6.27407C1100.86 9.28086 1104.88 12.8605 1105.5 12.5843C1100.19 17.2785 1094.26 11.6741 1089.05 12.9422C1086.03 15.0592 1082.59 16.0009 1079.16 15.6524C1075.84 13.5252 1072.5 14.6502 1069.1 17.4525C1066.28 10.8354 1063.93 22.0649 1061.3 15.7138C1058.79 19.8047 1055.15 11.398 1052.35 14.1592C1050.49 14.7216 1050.12 10.5389 1048.52 15.7546C1045.68 19.9683 1043.97 20.2342 1041.77 15.3252C1037.38 17.2785 1036.11 21.7376 1032.27 15.1308C1029.49 18.7922 1028.17 19.2627 1025.49 14.2718C1021.5 10.0684 1017.76 19.866 1015.12 13.6785C1009.61 6.24332 1006.47 14.2922 1005.45 9.15819C1000.42 7.66503 1003.85 8.56502 998.05 9.05587C996.945 5.82414 992.009 6.68308 988.639 6.97984C987.479 9.95586 982.869 9.50589 979.958 6.04911C978.001 6.38667 971.591 5.41501 971.083 6.14124C963.614 7.36838 965.276 10.0888 964.29 10.0991C963.387 11.7925 963.323 3.71202 960.332 3.82156C960.052 3.92505 959.769 4.02914 959.469 4.13665C956.868 2.848 952.168 2.68442 947.086 4.14682C945.48 1.50814 945.821 5.86506 941.312 4.0548C935.125 3.98324 935.523 3.45146 936.867 6.96955C937.861 7.06157 936.167 8.53426 934.815 9.09669C926.345 6.56042 924.93 8.28883 925.343 9.33201C927.777 13.9957 920.42 7.66503 915.856 9.3218C910.504 9.63883 908.181 8.76952 904.467 9.40359C899.894 7.56273 897.683 8.70825 894.391 6.68308C893.874 8.46271 893.246 6.31499 892.514 4.24902C891.4 3.59458 889.055 4.06497 887.894 4.13665C883.369 7.84907 881.754 7.63428 877.586 8.90246C873.888 11.8991 870.087 9.93544 866.445 9.67977C862.994 9.10697 861.307 10.4467 857.546 11.2649C854.429 9.73092 851.311 13.8014 848.193 11.2649C843.922 15.1206 838.435 18.516 834.38 11.0911C832.367 13.0955 831.254 9.4138 829.067 9.15819C827.476 8.38097 825.464 6.94909 823.826 9.22971C821.05 11.5821 818.275 13.1774 815.499 9.22971C811.205 8.49334 806.871 7.26619 802.584 9.20928C798.623 10.4264 795.506 10.4264 791.649 11.2854C787.506 9.49568 782.981 13.0138 779.036 10.2524C775.186 9.67977 770.613 13.0241 767.369 8.2582C764.641 4.60704 762.191 5.415 758.931 3.32869C757.261 0.229772 755.424 1.51842 753.73 2.11159C751.622 -1.35541 750.231 2.18315 747.996 0.853694C744.902 -0.00888742 741.719 -0.21961 738.572 0.229772C737.975 0.199137 737.061 -0.363397 735.828 2.17298C734.539 0.700287 733.251 2.32638 731.963 2.98094C728.79 2.08096 725.736 3.81954 722.587 3.10372C718.157 1.78431 713.998 6.95926 709.346 4.14682C704.924 5.00588 700.494 4.43317 696.072 4.14682C691.928 4.37179 687.578 7.01048 683.483 4.19792C680.461 10.2831 677.955 -0.199699 675.069 2.06049C669.74 -2.23493 663.386 9.74104 658.209 2.90927C654.758 4.82184 651.377 3.65597 648.013 2.99112C644.641 4.87293 641.293 -0.823621 637.882 2.06049C635.249 -0.97703 632.49 0.741211 629.858 2.09113C626.994 1.58998 620.338 5.0468 619.638 6.27407C621.029 9.28086 625.046 12.8605 625.666 12.5843C620.353 17.2785 614.429 11.6741 609.212 12.9422C606.191 15.0592 602.757 16.0009 599.326 15.6524C596.01 13.5252 592.669 14.6502 589.266 17.4525C586.443 10.8354 584.097 22.0649 581.464 15.7138C578.951 19.8047 575.317 11.398 572.517 14.1592C570.656 14.7216 570.282 10.5389 568.692 15.7546C565.845 19.9683 564.143 20.2342 561.94 15.3252C557.542 17.2785 556.278 21.7376 552.437 15.1308C549.653 18.7922 548.334 19.2627 545.661 14.2718C541.661 10.0684 537.923 19.866 535.29 13.6785C529.771 6.24332 526.63 14.2922 525.62 9.15819C520.578 7.66503 524.021 8.56502 518.216 9.05587C517.11 5.82414 512.172 6.68308 508.807 6.97984C507.646 9.95586 503.034 9.50589 500.124 6.04911C498.167 6.38667 491.757 5.41501 491.248 6.14124C483.78 7.36838 485.442 10.0888 484.456 10.0991C483.553 11.7925 483.488 3.71202 480.497 3.82156C480.217 3.92505 479.935 4.02914 479.634 4.13665C477.034 2.848 472.334 2.68442 467.252 4.14682C465.646 1.50814 465.987 5.86506 461.478 4.0548C455.29 3.98324 455.688 3.45146 457.033 6.96955C458.026 7.06157 456.333 8.53426 454.98 9.09669C446.511 6.56042 445.096 8.28883 445.509 9.33201C447.942 13.9957 440.586 7.66503 436.021 9.3218C430.668 9.63883 428.347 8.76952 424.633 9.40359C420.06 7.56273 417.849 8.70825 414.556 6.68308C414.039 8.46271 413.411 6.31499 412.679 4.24902C411.566 3.59458 409.221 4.06497 408.059 4.13665C403.534 7.84907 401.919 7.63428 397.752 8.90246C394.054 11.8991 390.253 9.93544 386.611 9.67977C383.159 9.10697 381.473 10.4467 377.711 11.2649C374.593 9.73092 371.476 13.8014 368.358 11.2649C364.088 15.1206 358.601 18.516 354.544 11.0911C352.532 13.0955 351.419 9.4138 349.232 9.15819C347.642 8.38097 345.629 6.94909 343.991 9.22971C341.216 11.5821 338.44 13.1774 335.665 9.22971C331.37 8.49334 327.036 7.26619 322.75 9.20928C318.789 10.4264 315.671 10.4264 311.814 11.2854C307.671 9.49568 303.145 13.0138 299.201 10.2524C295.352 9.67977 290.779 13.0241 287.534 8.2582C284.806 4.60704 282.357 5.415 279.097 3.32869C277.427 0.229772 275.59 1.51842 273.895 2.11159C271.788 -1.35541 270.396 2.18315 268.162 0.853694C265.067 -0.00888742 261.884 -0.21961 258.738 0.229772C258.141 0.199137 257.227 -0.363397 255.994 2.17298C254.705 0.700287 253.417 2.32638 252.129 2.98094C248.955 2.08096 245.902 3.81954 242.752 3.10372C238.322 1.78431 234.164 6.95926 229.51 4.14682C225.089 5.00588 220.659 4.43317 216.238 4.14682C212.094 4.37179 207.744 7.01048 203.648 4.19792C200.627 10.2831 198.121 -0.199699 195.234 2.06049C189.906 -2.23493 183.552 9.74104 178.374 2.90927C174.923 4.82184 171.543 3.65597 168.179 2.99112C164.807 4.87293 161.459 -0.823621 158.047 2.06049C155.415 -0.97703 152.655 0.741211 150.023 2.09113C147.16 1.58998 140.503 5.0468 139.803 6.27407C141.195 9.28086 145.211 12.8605 145.832 12.5843C140.519 17.2785 134.594 11.6741 129.377 12.9422C126.357 15.0592 122.922 16.0009 119.492 15.6524C116.176 13.5252 112.836 14.6502 109.432 17.4525C106.608 10.8354 104.262 22.0649 101.63 15.7138C99.1169 19.8047 95.4826 11.398 92.6831 14.1592C90.8222 14.7216 90.4483 10.5389 88.8578 15.7546C86.0108 19.9683 84.3088 20.2342 82.1059 15.3252C77.7081 17.2785 76.4435 21.7376 72.6023 15.1308C69.8188 18.7922 68.4987 19.2627 65.8266 14.2718C61.8262 10.0684 58.0884 19.866 55.4561 13.6785C49.9369 6.24332 46.7954 14.2922 45.7855 9.15819C40.7434 7.66503 44.187 8.56502 38.3814 9.05587C37.276 5.82414 32.3373 6.68308 28.9733 6.97984C27.8122 9.95586 23.1995 9.50589 20.2888 6.04911C18.3325 6.38667 11.9224 5.41501 11.4135 6.14124C3.9459 7.36838 5.60797 10.0888 4.62191 10.0991C3.71845 11.7925 2.9917 10.8123 0 10.9219V132.007Z" fill="#111111"/>
</svg>
