<?xml version="1.0" standalone="no"?>
  <!DOCTYPE svg PUBLIC "-//W3C//DTD SVG 1.1//EN" "http://www.w3.org/Graphics/SVG/1.1/DTD/svg11.dtd" >
  <svg>
  <metadata>
  Created by font-carrier
  </metadata>
  <defs>
  <font id="GameofThronesKG" horiz-adv-x="16384" vert-adv-y="16384" >
    <font-face
      
      font-family="Game of Thrones KG"
      
      font-weight="400"
      
      font-stretch="normal"
      
      units-per-em="2048"
      
      ascent="2048"
      
      descent="-385"
      
    />
      <missing-glyph />

      

      
      <glyph glyph-name="uni21" unicode="&#x21;" d="M258 338Q318 338 364 294Q408 250 408 188Q408 127 364 81Q318 37 258 37Q196 37 152 81Q108 125 108 188Q108 251 152 294Q196 338 258 338M337 430L178 430Q154 717 135 949Q127 1048 119 1145Q111 1242 104 1321Q97 1400 92.50 1454Q88 1508 87 1521Q86 1529 81.50 1570.50Q77 1612 70 1670Q63 1728 54.50 1793.50Q46 1859 37 1915Q28 1971 19.50 2008.50Q11 2046 4 2048L511 2048Q504 2046 495.50 2008.50Q487 1971 477.50 1915.50Q468 1860 459.50 1795Q451 1730 444 1672.50Q437 1615 432.50 1572.50Q428 1530 427 1521Q426 1508 422 1454Q418 1400 411 1321Q404 1242 396 1145.50Q388 1049 380 950Q361 718 337 430Z"  horiz-adv-x="514" vert-adv-y="2048"  />

      
      <glyph glyph-name="uni22" unicode="&#x22;" d="M163 1626L30 1626L6 2007L190 2007L163 1626M363 1626L230 1626L206 2007L390 2007L363 1626Z"  horiz-adv-x="402" vert-adv-y="2048"  />

      
      <glyph glyph-name="uni23" unicode="&#x23;" d="M492 1673L3 1673Q20 1666 37.50 1655Q55 1644 72 1628Q107 1597 127.50 1561.50Q148 1526 148 1484L148-378L149-376L149-378L1391 1169L1391-188Q1391-230 1370.50-265.50Q1350-301 1315-333Q1297-348 1280-359.50Q1263-371 1246-378L1735-378Q1702-365 1666-333Q1631-301 1610.50-265.50Q1590-230 1590-188L1590 1673L347 106L347 1484Q347 1526 367.50 1561.50Q388 1597 423 1628Q459 1659 492 1673M2042 110Q2042 112 2042.50 110.50Q2043 109 2042 110Q2041 739 2039.50 1091.50Q2038 1444 2038 1503L2042 110M2120 1530Q2218 1600 2336 1600Q2451 1600 2552 1489Q2602 1434 2630 1379L2596 1669L1707 1669Q1744 1657 1778 1630Q1850 1576 1850 1503Q1850 1444 1849 1093.50Q1848 743 1847 115Q1811 39 1678 0L2209 0Q2148 17 2106.50 45Q2065 73 2042 110L2043 1459Q2057 1476 2075.50 1494Q2094 1512 2120 1530M2999 824L3294 824Q3325 824 3354.50 835.50Q3384 847 3415 869Q3534 952 3534 1155Q3534 1375 3411 1500Q3311 1603 3186 1603Q3062 1603 3045 1596Q3006 1579 3006 1490Q3006 1424 3004.50 1257.50Q3003 1091 2999 824M3716 1108Q3685 1016 3625 931Q3565 846 3473 768Q3462 752 3396 736Q3330 720 3231.50 712.50Q3133 705 2999 705L2999 156Q2999 121 3020 91.50Q3041 62 3077 37Q3115 10 3148 0L2646 0Q2680 10 2718 37Q2754 62 2774.50 91.50Q2795 121 2795 156L2795 1513Q2795 1548 2774.50 1577Q2754 1606 2718 1632Q2680 1659 2646 1669L2999 1669Q3187 1698 3370 1662Q3741 1588 3741 1260Q3747 1198 3716 1108M3829 733L4198 732L4016 1294L3829 733M4775 0L4299 0Q4333 54 4415 80L4221 632L3805 632L3646 106Q3646 57 3704 24Q3732 8 3762 0L3320 0Q3416 13 3472 85Q3486 102 3495.50 119Q3505 136 3511 153L4027 1665Q4290 958 4434.50 577Q4579 196 4605 141Q4637 72 4710 28Q4744 8 4775 0M5685 2048L6511 2048L6511 1959Q6511 1938 6505 1936.50Q6499 1935 6487 1945Q6475 1955 6458.50 1971.50Q6442 1988 6421 2003Q6377 2034 6337 2048L6924 2048Q6885 2035 6841 2003Q6799 1972 6774.50 1936.50Q6750 1901 6750 1859L6750 189Q6750 147 6774.50 111.50Q6799 76 6841 45Q6885 13 6924 0L6337 0Q6377 13 6421 45Q6463 76 6487 111.50Q6511 147 6511 189L6511 1906L5685 1906L5685 189Q5685 147 5709 111.50Q5733 76 5775 45Q5818 13 5859 0L5272 0Q5313 14 5355 45Q5398 76 5422 111.50Q5446 147 5446 189L5446 1859Q5446 1901 5422 1936.50Q5398 1972 5355 2003Q5313 2034 5272 2048L5859 2048Q5818 2034 5775 2003L5685 2048M7289 824L7584 824Q7615 824 7644.50 835.50Q7674 847 7705 869Q7824 952 7824 1155Q7824 1375 7701 1500Q7601 1603 7476 1603Q7352 1603 7335 1596Q7296 1579 7296 1490Q7296 1424 7294.50 1257.50Q7293 1091 7289 824M8006 1108Q7975 1016 7915 931Q7855 846 7763 768Q7752 752 7686 736Q7620 720 7521.50 712.50Q7423 705 7289 705L7289 156Q7289 121 7310 91.50Q7331 62 7367 37Q7405 10 7438 0L6936 0Q6970 10 7008 37Q7044 62 7064.50 91.50Q7085 121 7085 156L7085 1513Q7085 1548 7064.50 1577Q7044 1606 7008 1632Q6970 1659 6936 1669L7289 1669Q7477 1698 7660 1662Q8031 1588 8031 1260Q8037 1198 8006 1108M7921 1665L8732 1665L8792 1695L8732 1385Q8730 1408 8724 1431Q8718 1454 8707 1477Q8662 1570 8567 1570L8267 1570L8267 936L8597 936Q8645 936 8684.50 950.50Q8724 965 8755 992L8716 660Q8714 706 8689 750Q8663 795 8623 817.50Q8583 840 8519 840L8267 840L8267 211Q8294 173 8340 140Q8434 68 8544 68Q8654 68 8750 180Q8774 208 8792 236Q8810 264 8823 292L8792 0L7949 0Q7983 12 8016 39Q8084 92 8084 167Q8084 225 8083.50 571.50Q8083 918 8082 1550Q8047 1627 7921 1665M10142 378L10182 129Q10146 97 10066 64Q9907 0 9696 0Q9684 0 9672 0Q9660 0 9646 1Q9285 14 9073 213Q8952 327 8894 488.50Q8836 650 8833 866Q8831 966 8851.50 1065.50Q8872 1165 8921 1265Q8970 1365 9039.50 1441.50Q9109 1518 9200 1569.50Q9291 1621 9402.50 1645.50Q9514 1670 9647 1665Q9861 1657 9995 1634.50Q10129 1612 10182 1595L10131 1227Q10123 1273 10102.50 1318Q10082 1363 10049 1409Q9917 1591 9664 1591Q9357 1591 9180 1399Q9001 1205 9001 862Q9001 536 9247 308Q9361 202 9485.50 149Q9610 96 9748 98Q9775 99 9808 109.50Q9841 120 9879 139Q10032 213 10142 378M14984 2018L15049 2048L14984 1738Q14981 1783 14957 1830Q14909 1923 14805 1923L10680 1913L10680 1893L10679 674L10679 156Q10679 121 10699 92Q10719 63 10755 37Q10773 24 10790.50 14.50Q10808 5 10825 0L10332 0Q10349 5 10366.50 14.50Q10384 24 10403 37Q10473 88 10479 156L10479 674L10477 1893L10476 1913L7303 1923Q7199 1923 7150 1830Q7138 1807 7131.50 1784Q7125 1761 7123 1738L7058 2048L7123 2018L14984 2018M11935 1557L11935 96Q12121 136 12240 269Q12408 456 12408 804Q12408 1152 12240 1355Q12120 1501 11935 1557M11334 1369Q11170 1177 11170 837Q11170 498 11334 303Q11452 164 11636 110L11636 1561Q11451 1507 11334 1369M11821 1583L11821 83Q11836 83 11852.50 84Q11869 85 11886 87L11886 1571Q11855 1578 11821 1583M11740 87L11740 1582Q11726 1580 11712.50 1578Q11699 1576 11686 1573L11686 96Q11700 93 11713.50 91Q11727 89 11740 87M11390 1584Q11497 1635 11602.50 1655.50Q11708 1676 11815 1673Q11959 1669 12090.50 1612.50Q12222 1556 12345 1437Q12613 1176 12613 804Q12613 438 12337 204Q12097 0 11815 0Q11508 0 11267 177Q10963 401 10963 809Q10963 1380 11390 1584M12895 1503L12895 249Q12895 185 12864 123Q12800 0 12635 0Q12504 0 12437 36Q12404 52 12398 71Q12555 36 12627 102Q12679 149 12713 295L12713 1503Q12713 1538 12694.50 1566Q12676 1594 12644 1620Q12627 1632 12611.50 1641.50Q12596 1651 12581 1656L13027 1656Q13011 1651 12995.50 1641.50Q12980 1632 12964 1620Q12932 1594 12913.50 1564.50Q12895 1535 12895 1503M13293 110Q13294 112 13293 110.50Q13292 109 13293 110Q13294 739 13296 1084.50Q13298 1430 13298 1489L13293 110M13220 1515Q13125 1586 13015 1586Q12905 1586 12809 1475Q12785 1447 12767 1419.50Q12749 1392 12735 1364L12767 1654L13612 1654Q13578 1642 13545 1616Q13477 1560 13477 1489Q13477 1430 13477.50 1086.50Q13478 743 13479 115Q13513 39 13640 0L13135 0Q13193 17 13232 45Q13271 73 13293 110L13293 1444Q13266 1482 13220 1515M14535 1557L14535 96Q14721 136 14840 269Q15008 456 15008 804Q15008 1152 14840 1355Q14720 1501 14535 1557M13934 1369Q13770 1177 13770 837Q13770 498 13934 303Q14052 164 14236 110L14236 1561Q14051 1507 13934 1369M14421 1583L14421 83Q14436 83 14452.50 84Q14469 85 14486 87L14486 1571Q14455 1578 14421 1583M14340 87L14340 1582Q14326 1580 14312.50 1578Q14299 1576 14286 1573L14286 96Q14300 93 14313.50 91Q14327 89 14340 87M13990 1584Q14097 1635 14202.50 1655.50Q14308 1676 14415 1673Q14559 1669 14690.50 1612.50Q14822 1556 14945 1437Q15213 1176 15213 804Q15213 438 14937 204Q14697 0 14415 0Q14108 0 13867 177Q13563 401 13563 809Q13563 1380 13990 1584M15570 82Q15588 75 15719 75Q15843 75 15942 175Q16064 297 16064 512Q16064 708 15944 791Q15915 812 15885 823.50Q15855 835 15826 835L15515 835Q15518 574 15520 411.50Q15522 249 15522 185Q15522 98 15570 82M15570 1576Q15522 1559 15522 1473Q15522 1408 15520 1279Q15518 1150 15515 955L15826 955Q15877 972 15925 1010Q16024 1088 16024 1205Q16024 1417 15922 1512Q15847 1583 15719 1583Q15588 1583 15570 1576M15951 895Q15955 893 15958 890Q16138 737 16198 558Q16228 468 16222 409Q16222 168 16009 66Q15935 31 15842.50 15.50Q15750 0 15636 0L15161 0Q15172 3 15188 10L15161 0Q15195 13 15232 41Q15267 69 15287.50 99Q15308 129 15308 162L15308 1495Q15308 1529 15287.50 1559Q15267 1589 15232 1617Q15195 1645 15161 1658L15188 1648Q15172 1655 15161 1658L15568 1658Q15692 1658 15782.50 1646Q15873 1634 15934 1612Q16161 1533 16161 1307Q16125 1020 15958 900Q15955 897 15951 895Z"  horiz-adv-x="16246" vert-adv-y="2048"  />

      
      <glyph glyph-name="uni24" unicode="&#x24;" d="M19347 1880Q19315 1858 19291.50 1836Q19268 1814 19251 1792L19251 136Q19309 43 19459 0L18795 0Q18961 48 19006 142Q19007 920 19008 1347Q19009 1774 19009 1847Q19009 1936 18920 2004Q18877 2037 18831 2052L19943 2052L19985 1693Q19968 1727 19944 1761Q19920 1795 19888 1830Q19762 1967 19617 1967Q19471 1967 19347 1880M19244 1847Q19244 1774 19246.50 1344Q19249 914 19251 136Q19252 135 19251 136.50Q19250 138 19251 136L19244 1847M18114 1750Q18173 1808 18226 1857Q18279 1906 18329 1944.50Q18379 1983 18426.50 2009.50Q18474 2036 18522 2048L17954 2048Q17986 2048 18006 2035Q18047 2009 17995 1942L17229 1186L17233 1890Q17265 2002 17402 2048L16815 2048Q16856 2034 16898 2003Q16941 1972 16965 1936.50Q16989 1901 16989 1859L16989 189Q16989 147 16965 111.50Q16941 76 16898 45Q16856 14 16815 0L17402 0Q17361 13 17318 45Q17235 106 17227 189L17227 881L17356 1007L18244 100Q18285 41 18243 18Q18224 7 18194 7L18762 7Q18714 19 18666.50 44.50Q18619 70 18569.50 108Q18520 146 18466.50 195.50Q18413 245 18354 305L17511 1159L18114 1750M15951 895Q15955 897 15958 900Q16125 1020 16161 1307Q16161 1533 15934 1612Q15873 1634 15783.50 1646Q15694 1658 15568 1658L15161 1658Q15172 1655 15188 1648L15161 1658Q15195 1645 15232 1617Q15267 1589 15287.50 1559Q15308 1529 15308 1495L15308 162Q15308 129 15287.50 99Q15267 69 15232 41Q15195 13 15161 0L15188 10Q15172 3 15161 0L15636 0Q15750 0 15842.50 15.50Q15935 31 16009 66Q16222 168 16222 409Q16228 468 16198 558Q16138 737 15958 890Q15955 893 15951 895M15570 1576Q15588 1583 15719 1583Q15847 1583 15922 1512Q16024 1417 16024 1205Q16024 1088 15925 1010Q15877 972 15826 955L15515 955Q15518 1150 15520 1279Q15522 1408 15522 1473Q15522 1559 15570 1576M15570 82Q15522 98 15522 185Q15522 249 15520 411.50Q15518 574 15515 835L15826 835Q15855 835 15885 823.50Q15915 812 15944 791Q16064 708 16064 512Q16064 297 15942 175Q15843 75 15719 75Q15588 75 15570 82M13990 1584Q13563 1380 13563 809Q13563 401 13867 177Q14108 0 14415 0Q14697 0 14937 204Q15213 437 15213 804Q15213 1176 14945 1437Q14822 1556 14690.50 1612.50Q14559 1669 14415 1673Q14308 1676 14202.50 1655.50Q14097 1635 13990 1584M14340 87Q14327 89 14313.50 91Q14300 93 14286 96L14286 1573Q14299 1576 14312.50 1578Q14326 1580 14340 1582L14340 87L14340 87M14421 1583Q14455 1578 14486 1571L14486 87Q14469 85 14452.50 84Q14436 83 14421 83L14421 1583L14421 1583M13934 1369Q14051 1507 14236 1561L14236 110Q14052 164 13934 303Q13770 498 13770 837Q13770 1177 13934 1369M14535 1557Q14720 1501 14840 1355Q15008 1152 15008 804Q15008 456 14840 269Q14721 136 14535 96L14535 1557L14535 1557M13220 1515Q13266 1482 13293 1444L13293 110Q13271 73 13232 45Q13193 17 13135 0L13640 0Q13513 39 13479 115Q13478 743 13477.50 1086.50Q13477 1430 13477 1489Q13477 1560 13545 1616Q13578 1642 13612 1654L12767 1654L12735 1364Q12749 1392 12767 1419.50Q12785 1447 12809 1475Q12905 1586 13015 1586Q13125 1586 13220 1515M13298 1489Q13298 1430 13296 1084.50Q13294 739 13293 110Q13292 109 13293 110.50Q13294 112 13293 110L13298 1489M12895 1503Q12895 1535 12913.50 1564.50Q12932 1594 12964 1620Q12980 1632 12995.50 1641.50Q13011 1651 13027 1656L12581 1656Q12596 1651 12611.50 1641.50Q12627 1632 12644 1620Q12676 1594 12694.50 1566Q12713 1538 12713 1503L12713 295Q12679 149 12627 102Q12555 36 12398 71Q12404 52 12437 36Q12504 0 12635 0Q12800 0 12864 123Q12895 185 12895 249L12895 1503L12895 1503M11390 1584Q10963 1380 10963 809Q10963 401 11267 177Q11508 0 11815 0Q12097 0 12337 204Q12613 437 12613 804Q12613 1176 12345 1437Q12222 1556 12090.50 1612.50Q11959 1669 11815 1673Q11708 1676 11602.50 1655.50Q11497 1635 11390 1584M11740 87Q11727 89 11713.50 91Q11700 93 11686 96L11686 1573Q11699 1576 11712.50 1578Q11726 1580 11740 1582L11740 87L11740 87M11821 1583Q11855 1578 11886 1571L11886 87Q11869 85 11852.50 84Q11836 83 11821 83L11821 1583L11821 1583M11334 1369Q11451 1507 11636 1561L11636 110Q11452 164 11334 303Q11170 498 11170 837Q11170 1177 11334 1369M11935 1557Q12120 1501 12240 1355Q12408 1152 12408 804Q12408 456 12240 269Q12121 136 11935 96L11935 1557L11935 1557M7123 2018L7058 2048L7123 1738Q7125 1761 7131.50 1784Q7138 1807 7150 1830Q7175 1877 7212 1900Q7249 1923 7303 1923L10476 1913L10477 1893L10479 674L10479 156Q10473 88 10403 37Q10384 24 10366.50 14.50Q10349 5 10332 0L10825 0Q10808 5 10790.50 14.50Q10773 24 10755 37Q10719 63 10699 92Q10679 121 10679 156L10679 674L10680 1893L10680 1913L14805 1923Q14909 1923 14957 1830Q14981 1783 14984 1738L15049 2048L14984 2018L7123 2018M10142 378Q10032 213 9879 139Q9841 120 9808 109.50Q9775 99 9748 98Q9610 96 9485.50 149Q9361 202 9247 308Q9001 536 9001 862Q9001 1205 9180 1399Q9357 1591 9664 1591Q9917 1591 10049 1409Q10082 1363 10102.50 1318Q10123 1273 10131 1227L10182 1595Q10129 1612 9995 1634.50Q9861 1657 9647 1665Q9514 1670 9402.50 1645.50Q9291 1621 9200 1569.50Q9109 1518 9039.50 1441.50Q8970 1365 8921 1265Q8872 1165 8851.50 1065.50Q8831 966 8833 866Q8836 650 8894 488.50Q8952 327 9073 213Q9285 14 9646 1Q9660 0 9672 0Q9684 0 9696 0Q9907 0 10066 64Q10146 97 10182 129L10142 378L10142 378M7921 1665Q8047 1627 8082 1550Q8083 918 8083.50 571.50Q8084 225 8084 167Q8084 92 8016 39Q7983 12 7949 0L8792 0L8823 292Q8810 264 8792 236Q8774 208 8750 180Q8654 68 8544 68Q8434 68 8340 140Q8294 173 8267 211L8267 840L8519 840Q8584 840 8623.50 817.50Q8663 795 8689 750Q8714 706 8716 660L8755 992Q8724 965 8684.50 950.50Q8645 936 8597 936L8267 936L8267 1570L8567 1570Q8662 1570 8707 1477Q8718 1454 8724 1431Q8730 1408 8732 1385L8792 1695L8732 1665L7921 1665L7921 1665M8006 1108Q8037 1198 8031 1260Q8031 1588 7660 1662Q7477 1698 7289 1669L6936 1669Q6970 1659 7008 1632Q7044 1606 7064.50 1577Q7085 1548 7085 1513L7085 156Q7085 121 7064.50 91.50Q7044 62 7008 37Q6970 10 6936 0L7438 0Q7405 10 7367 37Q7331 62 7310 91.50Q7289 121 7289 156L7289 705Q7423 705 7521.50 712.50Q7620 720 7686 736Q7752 752 7763 768Q7855 846 7915 931Q7975 1016 8006 1108M7289 824Q7293 1091 7294.50 1257.50Q7296 1424 7296 1490Q7296 1579 7335 1596Q7352 1603 7476 1603Q7601 1603 7701 1500Q7824 1375 7824 1155Q7824 952 7705 869Q7674 847 7644.50 835.50Q7615 824 7584 824L7289 824L7289 824M5775 2003Q5818 2034 5859 2048L5272 2048Q5313 2034 5355 2003Q5398 1972 5422 1936.50Q5446 1901 5446 1859L5446 189Q5446 147 5422 111.50Q5398 76 5355 45Q5313 14 5272 0L5859 0Q5818 13 5775 45Q5733 76 5709 111.50Q5685 147 5685 189L5685 1906L6511 1906L6511 189Q6511 147 6487 111.50Q6463 76 6421 45Q6377 13 6337 0L6924 0Q6885 13 6841 45Q6799 76 6774.50 111.50Q6750 147 6750 189L6750 1859Q6750 1901 6774.50 1936.50Q6799 1972 6841 2003Q6885 2035 6924 2048L6337 2048Q6377 2034 6421 2003Q6442 1988 6458.50 1971.50Q6475 1955 6487 1945Q6499 1935 6505 1936.50Q6511 1938 6511 1959L6511 2048L5685 2048L5775 2003M4775 0Q4744 8 4710 28Q4637 72 4605 141Q4579 196 4434.50 577Q4290 958 4027 1665L3511 153Q3505 136 3495.50 119Q3486 102 3472 85Q3416 13 3320 0L3762 0Q3732 8 3704 24Q3646 57 3646 106L3805 632L4221 632L4415 80Q4333 54 4299 0L4775 0L4775 0M4016 1294L4198 732L3829 733L4016 1294M3716 1108Q3747 1198 3741 1260Q3741 1588 3370 1662Q3187 1698 2999 1669L2646 1669Q2680 1659 2718 1632Q2754 1606 2774.50 1577Q2795 1548 2795 1513L2795 156Q2795 121 2774.50 91.50Q2754 62 2718 37Q2680 10 2646 0L3148 0Q3115 10 3077 37Q3041 62 3020 91.50Q2999 121 2999 156L2999 705Q3133 705 3231.50 712.50Q3330 720 3396 736Q3462 752 3473 768Q3565 846 3625 931Q3685 1016 3716 1108M2999 824Q3003 1091 3004.50 1257.50Q3006 1424 3006 1490Q3006 1579 3045 1596Q3062 1603 3186 1603Q3311 1603 3411 1500Q3534 1375 3534 1155Q3534 952 3415 869Q3384 847 3354.50 835.50Q3325 824 3294 824L2999 824L2999 824M2120 1530Q2094 1512 2075.50 1494Q2057 1476 2043 1459L2042 110Q2065 73 2106.50 45Q2148 17 2209 0L1678 0Q1811 39 1847 115Q1848 743 1849 1093.50Q1850 1444 1850 1503Q1850 1576 1778 1630Q1744 1657 1707 1669L2596 1669L2630 1379Q2602 1434 2552 1489Q2451 1600 2336 1600Q2218 1600 2120 1530M2038 1503Q2038 1444 2039.50 1091.50Q2041 739 2042 110Q2043 109 2042.50 110.50Q2042 112 2042 110L2038 1503M492 1673Q459 1659 423 1628Q388 1597 367.50 1561.50Q347 1526 347 1484L347 106L1590 1673L1590-188Q1590-230 1610.50-265.50Q1631-301 1666-333Q1702-365 1735-378L1246-378Q1263-371 1280-359.50Q1297-348 1315-333Q1350-301 1370.50-265.50Q1391-230 1391-188L1391 1169L149-378L149-376L148-378L148 1484Q148 1526 127.50 1561.50Q107 1597 72 1628Q55 1644 37.50 1655Q20 1666 3 1673L492 1673L492 1673Z"  horiz-adv-x="16246" vert-adv-y="2048"  />

      
      <glyph glyph-name="uni25" unicode="&#x25;" d="M1400 674L2094 674Q1936 633 1890 570Q1867 538 1875 514L1875-233Q1688-384 1213-384Q678-384 362-126Q181 19 92.50 236.50Q4 454 0 742Q-2 873 26.50 1002Q55 1131 124 1262Q193 1392 291 1492Q389 1592 516.50 1658.50Q644 1725 801 1756.50Q958 1788 1145 1782Q1296 1777 1418 1766.50Q1540 1756 1634 1743Q1728 1730 1793.50 1716.50Q1859 1703 1897 1691L1824 1212Q1803 1330 1710 1449Q1524 1687 1167 1687Q737 1687 488 1436Q237 1182 237 738Q237 313 582 16Q742-121 917-187Q1092-253 1286-256Q1394-258 1476.50-234Q1559-210 1619-155L1619 514Q1627 538 1604 570Q1558 633 1400 674M2514 660L2900 659L2710 1226L2514 660M2722 1540Q2996 872 3146.50 512Q3297 152 3324 100Q3359 33 3434-5Q3472-25 3502-32L3005-32Q3041 19 3126 43L2924 564L2490 564L2324 67Q2324 21 2385-9Q2400-17 2415-22.50Q2430-28 2445-32L1984-32Q2085-18 2143 48Q2158 65 2167.50 80.50Q2177 96 2183 112L2722 1540M5225 1522L5460 111Q5465 47 5529 1Q5545-10 5560.50-18.50Q5576-27 5592-32L5147-32Q5163-27 5178.50-18.50Q5194-10 5210 1Q5242 24 5260.50 51.50Q5279 79 5279 111L5279 161L5098 941L4576 0L4575-2L4575-1L4574-1L4568 3L4051 977L3942 179L3942 129Q3942 97 3960.50 69.50Q3979 42 4011 19Q4042-2 4075-13L3629-13Q3645-8 3660.50 0Q3676 8 3692 19Q3724 42 3740.50 69.50Q3757 97 3761 129L3942 1540L4574 243L5225 1522M6116 97Q6210 31 6320 31Q6430 31 6525 135Q6573 187 6598 239L6566-32L5727-32Q5759-21 5795 4Q5862 53 5862 122Q5862 177 5861.50 497.50Q5861 818 5860 1405Q5825 1476 5700 1512L6507 1512L6566 1540L6507 1253Q6504 1296 6482 1338Q6438 1424 6343 1424L6044 1424L6044 836L6372 836Q6420 836 6459 849.50Q6498 863 6529 888L6491 580Q6489 622 6464 664Q6413 747 6295 747L6044 747L6044 163Q6069 130 6116 97M7667 1037L7667 356Q7755 374 7811 436Q7891 525 7891 686Q7891 848 7811 943Q7756 1010 7667 1037M7644 352L7644 1044Q7636 1046 7628.50 1047Q7621 1048 7613 1049L7613 349L7644 352M7575 351L7575 1049Q7568 1048 7562 1047Q7556 1046 7549 1044L7549 356Q7556 354 7562 353Q7568 352 7575 351M7526 362L7526 1039Q7438 1014 7383 950Q7305 858 7305 701Q7305 543 7383 452Q7439 387 7526 362M7409 1050Q7460 1073 7510 1083Q7560 1093 7611 1092Q7679 1090 7741 1063.50Q7803 1037 7861 981Q7988 860 7988 686Q7988 516 7857 406Q7744 311 7611 311Q7467 311 7351 394Q7207 497 7207 688Q7207 956 7409 1050M8317 1034L8169 1034L8169 742L8332 742Q8378 742 8410 768L8390 615Q8390 637 8377 657Q8351 698 8293 698L8169 698L8169 408L8168 396L8168 383Q8171 351 8203 328Q8221 315 8235 311L8011 311Q8025 315 8043 328Q8059 339 8068 353Q8077 367 8077 383L8077 621L8078 621Q8077 712 8077 812.50Q8077 913 8077 1025Q8060 1060 7998 1078L8398 1078L8428 1092L8398 949Q8397 960 8394.50 970.50Q8392 981 8386 992Q8365 1034 8317 1034M16946 2002L16869 1631Q16867 1659 16859 1686Q16851 1713 16837 1741Q16780 1852 16657 1852L9497 1852L9497 1828L9495 775L9495 155Q9495 113 9519 78Q9543 43 9585 12Q9628-19 9668-32L9085-32Q9123-19 9167 12Q9251 73 9258 155L9258 775L9256 1828L9256 1852L8871 1852Q8748 1852 8691 1741Q8677 1713 8669 1686Q8661 1659 8659 1631L8582 2002L8659 1967L16869 1967L16946 2002M11041 1395L11041 113Q11041 81 11060 53Q11079 25 11111 2Q11144-22 11175-32L10724-32Q10755-22 10788 2Q10820 25 10839 53Q10858 81 10858 113L10858 775L9993 775L9993 113Q9993 81 10012 53Q10031 25 10063 2Q10096-22 10127-32L9676-32Q9707-22 9740 2Q9772 25 9791 53Q9810 81 9810 113L9810 1395Q9810 1427 9791 1454.50Q9772 1482 9740 1505Q9708 1529 9676 1540L10127 1540Q10095 1529 10063 1505Q10031 1482 10012 1454.50Q9993 1427 9993 1395L9993 884L10858 884L10858 1395Q10858 1427 10839 1454.50Q10820 1482 10788 1505Q10756 1529 10724 1540L11175 1540Q11143 1529 11111 1505Q11079 1482 11060 1454.50Q11041 1427 11041 1395M11579 748L11842 748Q11869 748 11896 759Q11923 770 11949 790Q12056 870 12056 1055Q12056 1258 11946 1374Q11858 1468 11745 1468Q11633 1468 11620 1462Q11585 1447 11585 1364Q11585 1241 11579 748M12002 696Q12082 622 12183 472Q12250 374 12307.50 301Q12365 228 12416 179Q12596 3 12745 35Q12737 17 12705 1Q12637-32 12506-32Q12374-32 12185 194Q12137 251 12096.50 307.50Q12056 364 12023 421Q11991 476 11922 530Q11781 638 11579 638L11579 112Q11579 80 11598 52.50Q11617 25 11649 2Q11665-9 11680.50-18Q11696-27 11712-32L11265-32Q11281-27 11296.50-18Q11312-9 11328 2Q11360 25 11379 52.50Q11398 80 11398 112L11398 1385Q11398 1417 11379 1445Q11360 1473 11328 1496Q11312 1507 11296.50 1516Q11281 1525 11265 1530L11579 1530Q11747 1557 11910 1523Q12240 1455 12240 1151Q12246 1096 12219 1011Q12163 841 12002 696M13472 1430L13472 58Q13649 95 13762 220Q13922 395 13922 722Q13922 1050 13762 1240Q13650 1375 13472 1430M13425 50L13425 1443Q13409 1447 13393.50 1449.50Q13378 1452 13363 1454L13363 45Q13379 46 13394 47Q13409 48 13425 50M13286 49L13286 1453Q13258 1450 13234 1444L13234 58Q13263 52 13286 49M13187 70L13187 1433Q13013 1384 12900 1253Q12743 1072 12743 754Q12743 436 12900 252Q13010 123 13187 70M12952 1455Q13054 1503 13155 1522Q13256 1541 13358 1539Q13495 1535 13620 1482Q13745 1429 13862 1317Q14118 1073 14118 722Q14118 379 13854 159Q13627-32 13358-32Q13065-32 12836 134Q12546 344 12546 728Q12546 1265 12952 1455M15325 1540L15776 1540Q15744 1529 15712 1505Q15680 1482 15661 1454Q15642 1426 15642 1394L15642-32L15641-30L15641-32L14498 1154L14498 113Q14498 81 14517 53Q14536 25 14568 2Q14601-22 14632-32L14181-32Q14197-27 14212.50-18Q14228-9 14245 2Q14277 25 14296 53Q14315 81 14315 113L14315 1540L15459 339L15459 1394Q15459 1426 15440 1454Q15421 1482 15389 1505Q15354 1530 15325 1540M16301 95Q16395 30 16502 30Q16609 30 16704 132Q16750 183 16776 234L16744-32L15919-32Q15950-21 15985 3Q16051 52 16051 120Q16051 174 16050.50 495.50Q16050 817 16049 1407Q16015 1477 15892 1513L16686 1513L16744 1540L16686 1257Q16683 1299 16662 1341Q16618 1425 16524 1425L16231 1425L16231 822L16554 822Q16602 822 16640 835.50Q16678 849 16708 874L16670 571Q16668 614 16644 653Q16595 735 16477 735L16231 735L16231 160Q16256 127 16301 95M17120 1268Q17120 1115 17389 893Q17552 759 17608 695Q17724 559 17724 422Q17724 202 17525 72Q17368-32 17192-32Q17081-32 16998 24Q16956 53 16938 80Q16924 193 16962 358Q16962 207 17073 128Q17157 68 17265 68Q17362 68 17460 133Q17573 210 17573 316Q17573 423 17482 536Q17425 608 17262 754Q17183 824 17129 878.50Q17075 933 17046 971Q16959 1085 16959 1202Q16959 1339 17069 1435Q17187 1540 17377 1540Q17541 1540 17625 1510Q17667 1495 17676 1480L17628 1208Q17628 1289 17571 1367Q17500 1465 17383 1465Q17255 1465 17185 1412Q17120 1361 17120 1268Z"  horiz-adv-x="16384" vert-adv-y="2048"  />

      
      <glyph glyph-name="uni26" unicode="&#x26;" d="M1402 674L2096 674Q1938 633 1892 570Q1869 538 1877 514L1877-233Q1690-384 1215-384Q680-384 364-126Q183 19 94.50 236.50Q6 454 2 742Q0 873 28.50 1002Q57 1131 126 1262Q195 1392 293 1492Q391 1592 518.50 1658.50Q646 1725 803 1756.50Q960 1788 1147 1782Q1298 1777 1420 1766.50Q1542 1756 1636 1743Q1730 1730 1795.50 1716.50Q1861 1703 1899 1691L1826 1212Q1805 1330 1712 1449Q1526 1687 1169 1687Q739 1687 490 1436Q239 1182 239 738Q239 313 584 16Q744-121 919-187Q1094-253 1288-256Q1396-258 1478.50-234Q1561-210 1621-155L1621 514Q1629 538 1606 570Q1560 633 1402 674M2516 660L2902 659L2712 1226L2516 660M2724 1540Q2998 872 3148.50 512Q3299 152 3326 100Q3361 33 3436-5Q3474-25 3504-32L3007-32Q3043 19 3128 43L2926 564L2492 564L2326 67Q2326 21 2387-9Q2402-17 2417-22.50Q2432-28 2447-32L1986-32Q2087-18 2145 48Q2160 65 2169.50 80.50Q2179 96 2185 112L2724 1540M5227 1522L5462 111Q5467 47 5531 1Q5547-10 5562.50-18.50Q5578-27 5594-32L5149-32Q5165-27 5180.50-18.50Q5196-10 5212 1Q5244 24 5262.50 51.50Q5281 79 5281 111L5281 161L5100 941L4578 0L4577-2L4577-1L4576-1L4570 3L4053 977L3944 179L3944 129Q3944 97 3962.50 69.50Q3981 42 4013 19Q4044-2 4077-13L3631-13Q3647-8 3662.50 0Q3678 8 3694 19Q3726 42 3742.50 69.50Q3759 97 3763 129L3944 1540L4576 243L5227 1522M6118 97Q6212 31 6322 31Q6432 31 6527 135Q6575 187 6600 239L6568-32L5729-32Q5761-21 5797 4Q5864 53 5864 122Q5864 177 5863.50 497.50Q5863 818 5862 1405Q5827 1476 5702 1512L6509 1512L6568 1540L6509 1253Q6506 1296 6484 1338Q6440 1424 6345 1424L6046 1424L6046 836L6374 836Q6422 836 6461 849.50Q6500 863 6531 888L6493 580Q6491 622 6466 664Q6415 747 6297 747L6046 747L6046 163Q6071 130 6118 97M7669 1037L7669 356Q7757 374 7813 436Q7893 525 7893 686Q7893 848 7813 943Q7758 1010 7669 1037M7646 352L7646 1044Q7638 1046 7630.50 1047Q7623 1048 7615 1049L7615 349L7646 352M7577 351L7577 1049Q7570 1048 7564 1047Q7558 1046 7551 1044L7551 356Q7558 354 7564 353Q7570 352 7577 351M7528 362L7528 1039Q7440 1014 7385 950Q7307 858 7307 701Q7307 543 7385 452Q7441 387 7528 362M7411 1050Q7462 1073 7512 1083Q7562 1093 7613 1092Q7681 1090 7743 1063.50Q7805 1037 7863 981Q7990 860 7990 686Q7990 516 7859 406Q7746 311 7613 311Q7469 311 7353 394Q7209 497 7209 688Q7209 956 7411 1050M8319 1034L8171 1034L8171 742L8334 742Q8380 742 8412 768L8392 615Q8392 637 8379 657Q8353 698 8295 698L8171 698L8171 408L8170 396L8170 383Q8173 351 8205 328Q8223 315 8237 311L8013 311Q8027 315 8045 328Q8061 339 8070 353Q8079 367 8079 383L8079 621L8080 621Q8079 712 8079 812.50Q8079 913 8079 1025Q8062 1060 8000 1078L8400 1078L8430 1092L8400 949Q8399 960 8396.50 970.50Q8394 981 8388 992Q8367 1034 8319 1034M16948 2002L16871 1631Q16869 1659 16861 1686Q16853 1713 16839 1741Q16782 1852 16659 1852L9499 1852L9499 1828L9497 775L9497 155Q9497 113 9521 78Q9545 43 9587 12Q9630-19 9670-32L9087-32Q9125-19 9169 12Q9253 73 9260 155L9260 775L9258 1828L9258 1852L8873 1852Q8750 1852 8693 1741Q8679 1713 8671 1686Q8663 1659 8661 1631L8584 2002L8661 1967L16871 1967L16948 2002M11043 1395L11043 113Q11043 81 11062 53Q11081 25 11113 2Q11146-22 11177-32L10726-32Q10757-22 10790 2Q10822 25 10841 53Q10860 81 10860 113L10860 775L9995 775L9995 113Q9995 81 10014 53Q10033 25 10065 2Q10098-22 10129-32L9678-32Q9709-22 9742 2Q9774 25 9793 53Q9812 81 9812 113L9812 1395Q9812 1427 9793 1454.50Q9774 1482 9742 1505Q9710 1529 9678 1540L10129 1540Q10097 1529 10065 1505Q10033 1482 10014 1454.50Q9995 1427 9995 1395L9995 884L10860 884L10860 1395Q10860 1427 10841 1454.50Q10822 1482 10790 1505Q10758 1529 10726 1540L11177 1540Q11145 1529 11113 1505Q11081 1482 11062 1454.50Q11043 1427 11043 1395M11581 748L11844 748Q11871 748 11898 759Q11925 770 11951 790Q12058 870 12058 1055Q12058 1258 11948 1374Q11860 1468 11747 1468Q11635 1468 11622 1462Q11587 1447 11587 1364Q11587 1241 11581 748M12004 696Q12084 622 12185 472Q12252 374 12309.50 301Q12367 228 12418 179Q12598 3 12747 35Q12739 17 12707 1Q12639-32 12508-32Q12376-32 12187 194Q12139 251 12098.50 307.50Q12058 364 12025 421Q11993 476 11924 530Q11783 638 11581 638L11581 112Q11581 80 11600 52.50Q11619 25 11651 2Q11667-9 11682.50-18Q11698-27 11714-32L11267-32Q11283-27 11298.50-18Q11314-9 11330 2Q11362 25 11381 52.50Q11400 80 11400 112L11400 1385Q11400 1417 11381 1445Q11362 1473 11330 1496Q11314 1507 11298.50 1516Q11283 1525 11267 1530L11581 1530Q11749 1557 11912 1523Q12242 1455 12242 1151Q12248 1096 12221 1011Q12165 841 12004 696M13474 1430L13474 58Q13651 95 13764 220Q13924 395 13924 722Q13924 1050 13764 1240Q13652 1375 13474 1430M13427 50L13427 1443Q13411 1447 13395.50 1449.50Q13380 1452 13365 1454L13365 45Q13381 46 13396 47Q13411 48 13427 50M13288 49L13288 1453Q13260 1450 13236 1444L13236 58Q13265 52 13288 49M13189 70L13189 1433Q13015 1384 12902 1253Q12745 1072 12745 754Q12745 436 12902 252Q13012 123 13189 70M12954 1455Q13056 1503 13157 1522Q13258 1541 13360 1539Q13497 1535 13622 1482Q13747 1429 13864 1317Q14120 1073 14120 722Q14120 379 13856 159Q13629-32 13360-32Q13067-32 12838 134Q12548 344 12548 728Q12548 1265 12954 1455M15327 1540L15778 1540Q15746 1529 15714 1505Q15682 1482 15663 1454Q15644 1426 15644 1394L15644-32L15643-30L15643-32L14500 1154L14500 113Q14500 81 14519 53Q14538 25 14570 2Q14603-22 14634-32L14183-32Q14199-27 14214.50-18Q14230-9 14247 2Q14279 25 14298 53Q14317 81 14317 113L14317 1540L15461 339L15461 1394Q15461 1426 15442 1454Q15423 1482 15391 1505Q15356 1530 15327 1540M16303 95Q16397 30 16504 30Q16611 30 16706 132Q16752 183 16778 234L16746-32L15921-32Q15952-21 15987 3Q16053 52 16053 120Q16053 174 16052.50 495.50Q16052 817 16051 1407Q16017 1477 15894 1513L16688 1513L16746 1540L16688 1257Q16685 1299 16664 1341Q16620 1425 16526 1425L16233 1425L16233 822L16556 822Q16604 822 16642 835.50Q16680 849 16710 874L16672 571Q16670 614 16646 653Q16597 735 16479 735L16233 735L16233 160Q16258 127 16303 95M17122 1268Q17122 1115 17391 893Q17554 759 17610 695Q17726 559 17726 422Q17726 202 17527 72Q17370-32 17194-32Q17083-32 17000 24Q16958 53 16940 80Q16926 193 16964 358Q16964 207 17075 128Q17159 68 17267 68Q17364 68 17462 133Q17575 210 17575 316Q17575 423 17484 536Q17427 608 17264 754Q17185 824 17131 878.50Q17077 933 17048 971Q16961 1085 16961 1202Q16961 1339 17071 1435Q17189 1540 17379 1540Q17543 1540 17627 1510Q17669 1495 17678 1480L17630 1208Q17630 1289 17573 1367Q17502 1465 17385 1465Q17257 1465 17187 1412Q17122 1361 17122 1268M19063 1159L19906 305Q19965 245 20018.50 195.50Q20072 146 20121.50 108Q20171 70 20218.50 44.50Q20266 19 20314 7L19746 7Q19776 7 19795 18Q19837 41 19796 100L18908 1007L18779 881L18779 189Q18787 106 18870 45Q18913 13 18954 0L18367 0Q18408 14 18450 45Q18493 76 18517 111.50Q18541 147 18541 189L18541 1859Q18541 1901 18517 1936.50Q18493 1972 18450 2003Q18408 2034 18367 2048L18954 2048Q18817 2002 18785 1890L18781 1186L19547 1942Q19599 2009 19558 2035Q19538 2048 19506 2048L20074 2048Q20026 2036 19978.50 2009.50Q19931 1983 19881 1944.50Q19831 1906 19778 1857Q19725 1808 19666 1750L19063 1159M21410 216L21410 849Q21418 872 21395 902Q21352 962 21203 1000L21858 1000Q21709 962 21666 902Q21643 872 21651 849L21651 142Q21606 107 21507 71Q21305 0 21026 0Q20521 0 20221 243Q20049 383 19966.50 587Q19884 791 19879 1065Q19877 1189 19904 1311Q19931 1433 19996 1556Q20061 1679 20153.50 1773.50Q20246 1868 20366.50 1931Q20487 1994 20635.50 2024Q20784 2054 20961 2048Q21246 2038 21424 2011Q21602 1984 21673 1962L21604 1509Q21583 1621 21495 1733Q21319 1958 20983 1958Q20576 1958 20341 1721Q20103 1482 20103 1061Q20103 660 20429 379Q20581 249 20746.50 186.50Q20912 124 21095 121Q21197 119 21275 141.50Q21353 164 21410 216Z"  horiz-adv-x="16384" vert-adv-y="2048"  />

      
      <glyph glyph-name="uni27" unicode="&#x27;" d="M229 1626L96 1626L72 2007L256 2007L229 1626Z"  horiz-adv-x="327" vert-adv-y="2048"  />

      
      <glyph glyph-name="uni28" unicode="&#x28;" d="M464-5Q262 146 151 430Q39 716 39 1057Q39 1351 166 1647Q294 1948 464 2042L464 1953Q266 1645 266 1054Q266 353 464 107L464-5L464-5Z"  horiz-adv-x="503" vert-adv-y="2048"  />

      
      <glyph glyph-name="uni29" unicode="&#x29;" d="M40-5L40 107Q238 353 238 1054Q238 1645 40 1953L40 2042Q210 1948 338 1647Q465 1351 465 1057Q465 716 353 430Q242 146 40-5Z"  horiz-adv-x="503" vert-adv-y="2048"  />

      
      <glyph glyph-name="uni2a" unicode="&#x2a;" d="M571 1657L398 1654L556 1549L603 1487L481 1383L427 1453L345 1612L254 1450L211 1386L80 1487L130 1556L288 1639L112 1666L22 1698L94 1848L190 1811L315 1716L252 1921L252 2000L428 2000L428 1924L368 1713L526 1820L600 1847L657 1686L571 1657Z"  horiz-adv-x="678" vert-adv-y="2048"  />

      
      <glyph glyph-name="uni2b" unicode="&#x2b;" d="M515 1136L864 1136L864 995L515 995L515 650L374 650L374 995L26 995L26 1136L374 1136L374 1479L515 1479L515 1136Z"  horiz-adv-x="886" vert-adv-y="2048"  />

      
      <glyph glyph-name="uni2c" unicode="&#x2c;" d="M52-212L1-140Q173 1 173 99Q173 143 143 187Q57 228 57 305Q57 357 98 392Q139 427 201 427Q255 427 299 379Q343 330 343 267Q343 135 287 28Q259-25 201-85Q143-145 52-212Z"  horiz-adv-x="367" vert-adv-y="2048"  />

      
      <glyph glyph-name="uni2d" unicode="&#x2d;" d="M515 1136L864 1136L864 995L515 995L515 995L374 995L374 995L26 995L26 1136L374 1136L515 1136Z"  horiz-adv-x="886" vert-adv-y="2048"  />

      
      <glyph glyph-name="uni2e" unicode="&#x2e;" d="M184 431Q246 431 290 387Q334 343 334 281Q334 218 290 174Q246 130 184 130Q122 130 78 174Q34 218 34 281Q34 343 78 387Q122 431 184 431Z"  horiz-adv-x="363" vert-adv-y="2048"  />

      
      <glyph glyph-name="uni2f" unicode="&#x2f;" d="M166 40L5 40L536 2011L695 2011L166 40Z"  horiz-adv-x="709" vert-adv-y="2048"  />

      
      <glyph glyph-name="uni30" unicode="&#x30;" d="M923 1906L923 118Q1098 167 1209 329Q1367 557 1367 984Q1367 1412 1209 1659Q1097 1836 923 1906M358 1676Q203 1439 203 1025Q203 609 358 371Q467 202 642 134L642 1910Q467 1844 358 1676M815 1937L815 101Q844 103 877 107L877 1923Q861 1928 846 1931.50Q831 1935 815 1937M739 106L739 1936Q725 1934 713 1931.50Q701 1929 688 1925L688 118Q701 114 714 111Q727 108 739 106M410 1939Q510 2002 609.50 2027Q709 2052 810 2048Q945 2043 1069 1974Q1193 1905 1308 1759Q1560 1439 1560 984Q1560 536 1300 249Q1075 0 810 0Q521 0 295 217Q9 491 9 991Q9 1690 410 1939Z"  horiz-adv-x="1577" vert-adv-y="2048"  />

      
      <glyph glyph-name="uni31" unicode="&#x31;" d="M201 136Q202 138 201 136.50Q200 135 201 136Q202 525 203 811.50Q204 1098 205 1294Q206 1490 207 1600.50Q208 1711 208 1747L201 136M-2 1593L-2 1650L565 2048Q543 2031 529 2006Q515 1981 507 1953Q499 1925 496 1897Q493 1869 493 1847Q493 1774 493.50 1347Q494 920 496 142Q496 124 505.50 104.50Q515 85 535 65.50Q555 46 585 29Q615 12 657 0L43 0Q81 11 110.50 27Q140 43 160 61.50Q180 80 190.50 99Q201 118 201 136L201 1692L-2 1593Z"  horiz-adv-x="653" vert-adv-y="2048"  />

      
      <glyph glyph-name="uni32" unicode="&#x32;" d="M803 1619Q821 1672 816 1716Q811 1760 788.50 1794.50Q766 1829 729.50 1855Q693 1881 649 1898Q606 1914 552 1912.50Q498 1911 450 1901Q394 1890 336 1870Q296 1853 261 1833Q231 1816 201 1792Q171 1768 157 1740Q129 1685 124 1627L82 1882Q128 1925 183 1955Q238 1985 296.50 2004Q355 2023 413.50 2032.50Q472 2042 526 2046Q653 2054 783 2036Q903 2003 980 1945Q1013 1920 1039.50 1887.50Q1066 1855 1078.50 1813Q1091 1771 1085 1719.50Q1079 1668 1046 1607L314 118L936 118Q1064 118 1121 231Q1150 286 1153 344L1232 0L1153 0L121 0L5 0L803 1619Z"  horiz-adv-x="1234" vert-adv-y="2048"  />

      
      <glyph glyph-name="uni33" unicode="&#x33;" d="M319 989L284 1174Q317 1198 388 1223Q459 1247 537 1265Q615 1283 709 1283Q714 1283 737.50 1281Q761 1279 793 1274Q825 1269 862 1260Q899 1251 931 1238Q982 1217 1029.50 1173.50Q1077 1130 1117 1077Q1142 1043 1158.50 1000Q1175 957 1184.50 910.50Q1194 864 1198 816.50Q1202 769 1203.50 727Q1205 685 1204.50 651Q1204 617 1205 596Q1207 521 1188.50 447Q1170 373 1127 298Q1039 149 878.50 71.50Q718-6 480 0Q288 6 170 22.50Q52 39 4 52L49 327Q53 310 58.50 295Q64 280 72.50 266.50Q81 253 94 239Q107 225 125 210Q159 181 195.50 161Q232 141 273 128.50Q314 116 361.50 110.50Q409 105 465 105Q737 105 895 248Q935 284 965 319.50Q995 355 1015 395.50Q1035 436 1045 485Q1055 534 1055 598Q1055 659 1051 726.50Q1047 794 1036.50 856.50Q1026 919 1007.50 971Q989 1023 961 1053Q916 1101 868.50 1132.50Q821 1164 759 1179Q742 1183 714.50 1184Q687 1185 657 1183.50Q627 1182 599 1178Q571 1174 554 1167Q418 1112 319 989M284 1174L927 1930L297 1930Q172 1930 113 1817L2 2048L1202 2048L319 989L284 1174Z"  horiz-adv-x="1209" vert-adv-y="2048"  />

      
      <glyph glyph-name="uni34" unicode="&#x34;" d="M1105 1859L1105 189Q1105 147 1129 111.50Q1153 76 1195 45Q1238 13 1279 0L692 0Q733 14 775 45Q818 76 842 111.50Q866 147 866 189L866 1859Q866 1901 842 1936.50Q818 1972 775 2003Q733 2034 692 2048Q744 2048 820 2047.50Q896 2047 978 2047Q1060 2047 1139.50 2047.50Q1219 2048 1279 2048Q1238 2034 1195 2003Q1153 1972 1129 1936.50Q1105 1901 1105 1859M1007 2047L188 884L1173 884Q1190 884 1205 903Q1220 922 1234 955Q1240 972 1245 988Q1250 1004 1253 1020L1253 562Q1250 578 1245 594Q1240 610 1234 627Q1220 660 1205 679Q1190 698 1173 698L-4 698L948 2047L1007 2047Z"  horiz-adv-x="1280" vert-adv-y="2048"  />

      
      <glyph glyph-name="uni35" unicode="&#x35;" d="M-1 2048L1046 2048Q1177 2078 1222 2126Q1281 2193 1250 2336Q1265 2330 1282 2300Q1314 2240 1314 2119Q1316 1969 1203 1910Q1146 1882 1088 1882L277 1882Q246 1882 214.50 1876Q183 1870 160 1841Q149 1826 143.50 1809Q138 1792 137 1760L-1 2048M137 1313L137 1760L-1 2048L137 2048L-1 2048L-1 1313L137 1313M0 1101Q27 1136 47 1159Q67 1182 88.50 1198.50Q110 1215 135.50 1228.50Q161 1242 198 1258Q217 1266 253 1272.50Q289 1279 328 1284Q367 1289 400.50 1292Q434 1295 447 1295Q514 1296 576 1291Q638 1286 696.50 1271Q755 1256 811 1228.50Q867 1201 923 1156Q983 1108 1024 1053.50Q1065 999 1090.50 939.50Q1116 880 1127.50 815.50Q1139 751 1139 681Q1139 608 1128 546Q1117 484 1095.50 430.50Q1074 377 1041 330.50Q1008 284 964 242Q920 201 872 175Q824 149 768 135Q712 121 648 116Q584 111 509 111Q447 111 396 115Q345 119 302 131Q259 143 222 164Q185 185 151 218Q114 253 85 295Q56 337 48 376L-1 61Q51 46 181 27Q311 8 522 1Q782-7 959.50 82.50Q1137 172 1233 343Q1281 428 1301 513Q1321 598 1319 684Q1316 868 1258.50 1006.50Q1201 1145 1083 1242Q877 1411 523 1423Q510 1423 497.50 1423.50Q485 1424 474 1424Q267 1424 112 1369Q73 1355 44.50 1341Q16 1327-1 1313L0 1101L0 1101Z"  horiz-adv-x="1322" vert-adv-y="2048"  />

      
      <glyph glyph-name="uni36" unicode="&#x36;" d="M808 1330L808 81Q963 116 1060 229Q1198 389 1198 686Q1198 984 1060 1158Q961 1281 808 1330M311 1170Q175 1004 175 715Q175 425 311 258Q409 139 561 93L561 1333Q408 1287 311 1170M714 1352L714 69Q726 70 739.50 71Q753 72 767 74L767 1342Q754 1345 741 1347.50Q728 1350 714 1352M646 73L646 1351Q635 1349 624 1347.50Q613 1346 602 1344L602 81Q613 79 624 77Q635 75 646 73M357 1353Q446 1397 533 1414.50Q620 1432 709 1430Q827 1426 936 1378Q1045 1330 1146 1228Q1368 1004 1368 686Q1368 374 1140 173Q943 0 709 0Q581 0 468.50 37Q356 74 256 151Q130 247 68.50 381Q7 515 5 691Q1 933 90.50 1099Q180 1265 357 1353M5 691Q2 743 2 812Q2 881 6 959Q10 1037 17.50 1120Q25 1203 37 1281.50Q49 1360 65 1430.50Q81 1501 102 1555Q148 1674 207 1763Q266 1852 346 1913Q426 1974 532 2007Q638 2040 777 2048Q882 2054 979 2039.50Q1076 2025 1155.50 2002.50Q1235 1980 1292.50 1955.50Q1350 1931 1376 1916L1326 1496Q1322 1535 1315 1568Q1308 1601 1296.50 1632.50Q1285 1664 1268.50 1695.50Q1252 1727 1230 1762Q1204 1803 1164 1832Q1124 1861 1074.50 1880Q1025 1899 966.50 1909Q908 1919 845 1922Q770 1926 687.50 1903.50Q605 1881 530 1836Q455 1791 396 1725Q337 1659 309 1576Q279 1488 254.50 1392.50Q230 1297 212.50 1191Q195 1085 185 967Q175 849 175 715L5 691Z"  horiz-adv-x="1375" vert-adv-y="2048"  />

      
      <glyph glyph-name="uni37" unicode="&#x37;" d="M5 0L1016 1930L386 1930Q261 1930 202 1817Q174 1762 169 1704L91 2048L1371 2048L248 0L5 0Z"  horiz-adv-x="1376" vert-adv-y="2048"  />

      
      <glyph glyph-name="uni38" unicode="&#x38;" d="M727 1177L727 73Q864 103 952 203Q1076 345 1076 607Q1076 871 952 1025Q864 1134 727 1177M282 1035Q160 887 160 633Q160 378 282 229Q368 125 506 83L506 1180Q369 1138 282 1035M642 1196L642 62Q653 63 665 63.50Q677 64 690 66L690 1188Q678 1190 666 1192.50Q654 1195 642 1196M582 65L582 1196Q571 1194 561.50 1192.50Q552 1191 542 1189L542 73Q553 71 562.50 69Q572 67 582 65M323 1198Q402 1236 480.50 1251.50Q559 1267 638 1265Q744 1262 841.50 1219.50Q939 1177 1030 1086Q1228 889 1228 607Q1228 331 1024 154Q848 0 638 0Q410 0 233 134Q8 303 8 612Q8 1043 323 1198M632 1995L632 1296Q653 1297 682.50 1305.50Q712 1314 742 1326.50Q772 1339 798 1354Q824 1369 839 1385Q921 1473 921 1637Q921 1803 839 1898Q824 1915 799 1932.50Q774 1950 745 1964.50Q716 1979 686 1987.50Q656 1996 632 1995M392 1904Q311 1812 311 1653Q311 1492 392 1401Q407 1384 430.50 1367Q454 1350 482 1335Q510 1320 539 1310Q568 1300 592 1297L592 1996Q569 1993 540.50 1984.50Q512 1976 484 1963.50Q456 1951 431.50 1935.50Q407 1920 392 1904M632 1995L632 1296Q636 1296 635 1296Q634 1296 632 1296Q630 1296 629 1296Q628 1296 632 1296L632 1995Q628 1996 628.50 1997Q629 1998 631 1998Q633 1998 634 1997.50Q635 1997 632 1995M592 1297L592 1996Q589 1996 589.50 1996Q590 1996 592 1996.50Q594 1997 594.50 1997Q595 1997 592 1996L592 1297Q595 1296 594.50 1296Q594 1296 592.50 1296.50Q591 1297 590 1297Q589 1297 592 1297M420 2006Q473 2030 524.50 2040Q576 2050 629 2048Q700 2046 765 2019.50Q830 1993 890 1936Q1022 1813 1022 1637Q1022 1465 886 1354Q768 1257 629 1257Q479 1257 359 1341Q210 1448 210 1640Q210 1911 420 2006Z"  horiz-adv-x="1232" vert-adv-y="2048"  />

      
      <glyph glyph-name="uni39" unicode="&#x39;" d="M569 717L569 1966Q492 1948 429.50 1911.50Q367 1875 317 1818Q179 1657 179 1361Q179 1063 317 889Q417 765 569 717M1066 877Q1202 1043 1202 1332Q1202 1622 1066 1789Q970 1907 816 1954L816 714Q969 759 1066 877M664 695L664 1977Q651 1977 637.50 1976Q624 1975 610 1973L610 705Q624 701 637 699Q650 697 664 695M731 1974L731 696Q742 698 753.50 699.50Q765 701 776 703L776 1966Q764 1968 753 1970Q742 1972 731 1974M1020 693Q932 650 844.50 632.50Q757 615 668 617Q550 621 441 669Q332 717 231 819Q9 1042 9 1361Q9 1673 238 1874Q434 2048 668 2048Q923 2048 1121 1896Q1248 1800 1309 1666Q1370 1532 1372 1356Q1376 1114 1286.50 947.50Q1197 781 1020 693M1373 1356Q1376 1304 1376 1235Q1376 1166 1372 1088Q1368 1010 1360 927Q1352 844 1340 765.50Q1328 687 1312 616.50Q1296 546 1275 492Q1229 373 1170 284Q1111 195 1031 134Q951 73 845 40Q739 7 600 0Q495-6 398 8.50Q301 23 221.50 45Q142 67 84.50 91.50Q27 116 1 131L52 551Q56 512 62.50 479Q69 446 80.50 414.50Q92 383 108 351.50Q124 320 147 285Q174 244 213.50 215Q253 186 302.50 167Q352 148 410.50 138Q469 128 532 125Q607 121 689.50 143.50Q772 166 847 211Q922 256 981 322Q1040 388 1068 471Q1098 559 1122.50 654.50Q1147 750 1165 856Q1183 962 1192.50 1080Q1202 1198 1202 1332L1373 1356Z"  horiz-adv-x="1384" vert-adv-y="2048"  />

      
      <glyph glyph-name="uni3a" unicode="&#x3a;" d="M184 1241Q246 1241 290 1197Q334 1153 334 1091Q334 1028 290 984Q246 940 184 940Q122 940 78 984Q34 1028 34 1091Q34 1153 78 1197Q122 1241 184 1241M184 431Q246 431 290 387Q334 343 334 281Q334 218 290 174Q246 130 184 130Q122 130 78 174Q34 218 34 281Q34 343 78 387Q122 431 184 431Z"  horiz-adv-x="363" vert-adv-y="2048"  />

      
      <glyph glyph-name="uni3b" unicode="&#x3b;" d="M182 1241Q244 1241 288 1197Q332 1153 332 1091Q332 1028 288 984Q244 940 182 940Q120 940 76 984Q32 1028 32 1091Q32 1153 76 1197Q120 1241 182 1241M52-212L1-140Q173 1 173 99Q173 143 143 187Q57 228 57 305Q57 357 98 392Q139 427 201 427Q255 427 299 379Q343 330 343 267Q343 135 287 28Q259-25 201-85Q143-145 52-212Z"  horiz-adv-x="367" vert-adv-y="2048"  />

      
      <glyph glyph-name="uni3c" unicode="&#x3c;" d="M754 658L15 976L15 1099L754 1413L754 1252L183 1037L754 819L754 658Z"  horiz-adv-x="768" vert-adv-y="2048"  />

      
      <glyph glyph-name="uni3d" unicode="&#x3d;" d="M960 1276L960 1135L122 1135L122 1276L960 1276M960 936L960 795L122 795L122 936L960 936Z"  horiz-adv-x="1074" vert-adv-y="2048"  />

      
      <glyph glyph-name="uni3e" unicode="&#x3e;" d="M15 819L586 1037L15 1252L15 1413L754 1099L754 976L15 658L15 819Z"  horiz-adv-x="768" vert-adv-y="2048"  />

      
      <glyph glyph-name="uni3f" unicode="&#x3f;" d="M440 338Q502 338 546 294Q590 250 590 188Q590 127 546 81Q502 37 440 37Q378 37 334 81Q290 127 290 188Q290 250 334 294Q378 338 440 338M643 1634Q648 1690 639 1731Q630 1772 610 1801Q590 1830 559 1849Q528 1868 490 1880Q451 1891 406.50 1882Q362 1873 324 1856Q279 1837 235 1808Q199 1776 169 1747Q156 1735 143.50 1721.50Q131 1708 119.50 1695.50Q108 1683 99.50 1671.50Q91 1660 87 1651Q81 1637 74 1617Q67 1597 61 1576Q55 1555 51.50 1534.50Q48 1514 50 1500L20 1747Q50 1799 88 1840Q126 1881 166.50 1912.50Q207 1944 249.50 1966Q292 1988 331 2003Q423 2038 520 2048Q630 2052 707 2004Q740 1984 769.50 1950.50Q799 1917 817.50 1866.50Q836 1816 841 1746Q846 1676 831 1582L557 477L355 477L643 1634Z"  horiz-adv-x="863" vert-adv-y="2048"  />

      
      <glyph glyph-name="uni41" unicode="&#x41;" d="M696 902L1198 900L951 1592L696 902M1982 0L1335 0Q1380 66 1492 98L1229 777L664 777L448 130Q448 71 527 29Q568 9 605 0L5 0Q135 16 212 104Q232 126 244 147Q256 168 264 188L966 2048Q1323 1179 1519.50 710Q1716 241 1751 173Q1794 88 1893 35Q1918 22 1940 13.50Q1962 5 1982 0Z"  horiz-adv-x="1988" vert-adv-y="2048"  />

      
      <glyph glyph-name="uni42" unicode="&#x42;" d="M486 101Q510 93 661 93Q806 93 923 216Q1066 368 1066 632Q1066 875 926 977Q891 1003 856.50 1017Q822 1031 787 1031L421 1031Q425 709 427 508.50Q429 308 429 229Q429 122 486 101M486 1947Q429 1926 429 1819Q429 1739 427 1580Q425 1421 421 1180L787 1180Q843 1199 903 1248Q1019 1344 1019 1488Q1019 1751 899 1868Q809 1955 661 1955Q510 1955 486 1947M934 1106Q941 1101 942 1099Q1153 910 1224 689Q1259 576 1252 506Q1252 208 1002 82Q915 39 806 19.50Q697 0 563 0L5 0Q20 5 36 13L5 0Q46 17 88 51Q130 85 154 122Q178 159 178 201L178 1847Q178 1889 154 1926Q130 1963 88 1997Q46 2031 5 2048L36 2035Q20 2043 5 2048L483 2048Q627 2048 734.50 2032.50Q842 2017 914 1991Q1181 1892 1181 1614Q1159 1437 1100 1311.50Q1041 1186 942 1112Q941 1109 934 1106Z"  horiz-adv-x="1264" vert-adv-y="2048"  />

      
      <glyph glyph-name="uni43" unicode="&#x43;" d="M1757 465L1810 159Q1762 120 1655 79Q1445 0 1164 0Q1148 0 1131.50 0Q1115 0 1098 1Q617 18 337 262Q177 401 99 601.50Q21 802 17 1065Q15 1189 42 1311Q69 1433 134 1556Q199 1679 291.50 1773.50Q384 1868 504.50 1931Q625 1994 773.50 2024Q922 2054 1099 2048Q1384 2038 1561.50 2011Q1739 1984 1810 1962L1742 1509Q1721 1621 1633 1733Q1457 1957 1121 1957Q715 1957 479 1721Q241 1482 241 1061Q241 660 567 379Q719 249 884.50 184Q1050 119 1233 121Q1269 121 1312.50 134.50Q1356 148 1407 171Q1610 263 1757 465Z"  horiz-adv-x="1815" vert-adv-y="2048"  />

      
      <glyph glyph-name="uni44" unicode="&#x44;" d="M443 211Q498 160 574.50 138Q651 116 751 118Q929 120 1091 185.50Q1253 251 1402 386Q1721 672 1721 1068Q1721 1478 1488 1713Q1259 1945 861 1945Q607 1945 443 1811L443 211M5 2048L883 2048Q1572 2048 1826 1560Q1889 1437 1915.50 1316Q1942 1195 1940 1072Q1936 803 1855 599.50Q1774 396 1606 253Q1308 0 819 0L5 0L107 34Q196 74 207 127L207 1900Q215 1924 193 1952Q149 2011 5 2048Z"  horiz-adv-x="1957" vert-adv-y="2048"  />

      
      <glyph glyph-name="uni45" unicode="&#x45;" d="M5 2012L1056 2012L1133 2048L1056 1674Q1051 1729 1023 1785Q966 1897 842 1897L453 1897L453 1131L881 1131Q944 1131 994.50 1149Q1045 1167 1085 1199L1035 798Q1034 852 1000 907Q934 1015 780 1015L453 1015L453 255Q485 213 547 169Q671 83 812 83Q954 83 1079 218Q1142 287 1174 353L1133 0L41 0Q83 15 128 47Q216 113 216 202Q216 344 213 1873Q167 1966 5 2012Z"  horiz-adv-x="1179" vert-adv-y="2048"  />

      
      <glyph glyph-name="uni46" unicode="&#x46;" d="M453 1131L881 1131Q944 1131 994.50 1149Q1045 1167 1085 1199L1035 798Q1034 852 1000 907Q934 1015 780 1015L453 1015L453 255L452 222L452 189Q452 147 476 111.50Q500 76 543 45Q585 14 626 0L40 0Q81 14 123 45Q206 106 214 189L214 813L215 813L213 1873Q167 1966 5 2012L1056 2012L1133 2048L1056 1674Q1051 1729 1023 1785Q966 1897 842 1897L453 1897L453 1131Z"  horiz-adv-x="1138" vert-adv-y="2048"  />

      
      <glyph glyph-name="uni47" unicode="&#x47;" d="M1548 216L1548 849Q1556 872 1533 902Q1490 962 1341 1000L1996 1000Q1847 962 1804 902Q1781 872 1789 849L1789 142Q1744 107 1645 71Q1443 0 1164 0Q659 0 359 243Q187 383 104.50 587Q22 791 17 1065Q15 1189 42 1311Q69 1433 134 1556Q199 1679 291.50 1773.50Q384 1868 504.50 1931Q625 1994 773.50 2024Q922 2054 1099 2048Q1384 2038 1562 2011Q1740 1984 1811 1962L1742 1509Q1721 1621 1633 1733Q1457 1958 1121 1958Q714 1958 479 1721Q241 1482 241 1061Q241 660 567 379Q719 249 884.50 186.50Q1050 124 1233 121Q1335 119 1413 141.50Q1491 164 1548 216Z"  horiz-adv-x="2001" vert-adv-y="2048"  />

      
      <glyph glyph-name="uni48" unicode="&#x48;" d="M1783 1859L1783 189Q1783 147 1807 111.50Q1831 76 1874 45Q1916 14 1957 0L1370 0Q1410 13 1454 45Q1496 76 1520 111.50Q1544 147 1544 189L1544 1052L418 1052L418 189Q418 147 442 111.50Q466 76 508 45Q551 13 592 0L5 0Q46 14 88 45Q131 76 155 111.50Q179 147 179 189L179 1859Q179 1901 155 1936.50Q131 1972 88 2003Q46 2034 5 2048L592 2048Q551 2034 508 2003Q466 1972 442 1936.50Q418 1901 418 1859L418 1194L1544 1194L1544 1859Q1544 1901 1520 1936.50Q1496 1972 1454 2003Q1410 2034 1370 2048L1957 2048Q1916 2034 1874 2003Q1831 1972 1807 1936.50Q1783 1901 1783 1859Z"  horiz-adv-x="1962" vert-adv-y="2048"  />

      
      <glyph glyph-name="uni49" unicode="&#x49;" d="M418 1859L418 189Q418 147 442 111.50Q466 76 508 45Q551 13 592 0L5 0Q46 14 88 45Q131 76 155 111.50Q179 147 179 189L179 1859Q179 1901 155 1936.50Q131 1972 88 2003Q46 2034 5 2048L592 2048Q551 2034 508 2003Q466 1972 442 1936.50Q418 1901 418 1859Z"  horiz-adv-x="597" vert-adv-y="2048"  />

      
      <glyph glyph-name="uni4a" unicode="&#x4a;" d="M659 1859L659 308Q659 228 618 152Q535 0 318 0Q147 0 57 44Q14 66 5 88Q212 45 307 126Q376 185 420 365L420 1859Q420 1901 396 1936.50Q372 1972 329 2003Q287 2034 246 2048L833 2048Q792 2034 750 2003Q707 1972 683 1936.50Q659 1901 659 1859Z"  horiz-adv-x="838" vert-adv-y="2048"  />

      
      <glyph glyph-name="uni4b" unicode="&#x4b;" d="M701 1159L1544 305Q1602 246 1655 196.50Q1708 147 1758 109Q1808 71 1856 45Q1904 19 1952 7L1384 7Q1414 7 1433 18Q1475 41 1434 100L546 1007L417 881L417 189Q425 106 508 45Q551 13 592 0L5 0Q46 14 88 45Q131 76 155 111.50Q179 147 179 189L179 1859Q179 1901 155 1936.50Q131 1972 88 2003Q46 2034 5 2048L592 2048Q455 2002 423 1890L419 1186L1185 1942Q1237 2009 1196 2035Q1176 2048 1144 2048L1712 2048Q1664 2036 1616.50 2009.50Q1569 1983 1519 1944.50Q1469 1906 1416 1857Q1363 1808 1304 1750L701 1159Z"  horiz-adv-x="1957" vert-adv-y="2048"  />

      
      <glyph glyph-name="uni4c" unicode="&#x4c;" d="M461 1912Q460 1910 461 1911.50Q462 1913 461 1912Q459 1134 456.50 706Q454 278 454 205L461 1912M557 172Q681 85 827 85Q972 85 1098 222Q1130 257 1154 291Q1178 325 1195 359L1153 0L41 0Q87 15 130 48Q219 116 219 205Q219 350 216 1906Q171 2000 5 2048L669 2048Q519 2005 461 1912L461 260Q478 238 501.50 216Q525 194 557 172Z"  horiz-adv-x="1200" vert-adv-y="2048"  />

      
      <glyph glyph-name="uni4d" unicode="&#x4d;" d="M1239 41L1237 39L1237 40L1236 40L1229 47L554 1316L413 276L413 211Q421 128 503 68Q545 37 586 23L5 23Q25 30 45.50 41.50Q66 53 87 68Q129 99 150.50 134Q172 169 177 211L412 2048L1236 383L2085 2024L2390 187Q2396 106 2480 44Q2524 13 2562 0L1982 0Q2020 13 2064 44Q2106 75 2130 110Q2154 145 2154 187L2154 253L1919 1269L1239 41Z"  horiz-adv-x="2568" vert-adv-y="2048"  />

      
      <glyph glyph-name="uni4e" unicode="&#x4e;" d="M1495 2048L2082 2048Q2041 2034 1999 2003Q1956 1972 1932 1936.50Q1908 1901 1908 1859L1908 0L1907 2L1907 0L418 1545L418 189Q418 147 442 111.50Q466 76 509 45Q551 14 592 0L5 0Q46 14 88 45Q131 76 155 111.50Q179 147 179 189L179 2048L1669 484L1669 1859Q1669 1901 1645 1936.50Q1621 1972 1578 2003Q1536 2034 1495 2048Z"  horiz-adv-x="2087" vert-adv-y="2048"  />

      
      <glyph glyph-name="uni4f" unicode="&#x4f;" d="M1211 1905L1211 118Q1443 168 1589 329Q1797 558 1797 983Q1797 1410 1589 1658Q1441 1835 1211 1905M465 1675Q261 1436 261 1024Q261 611 465 371Q610 201 840 134L840 1909Q610 1843 465 1675M1069 1936L1069 101Q1106 102 1150 107L1150 1922Q1130 1927 1109.50 1930.50Q1089 1934 1069 1936M968 106L968 1935Q951 1933 934.50 1930.50Q918 1928 901 1924L901 118Q934 111 968 106M534 1938Q667 2001 798 2026Q929 2051 1062 2047Q1240 2042 1403.50 1973Q1567 1904 1719 1758Q2052 1438 2052 983Q2052 537 1709 249Q1412 0 1062 0Q681 0 382 217Q5 490 5 990Q5 1689 534 1938Z"  horiz-adv-x="2058" vert-adv-y="2048"  />

      
      <glyph glyph-name="uni50" unicode="&#x50;" d="M415 1017L757 1017Q792 1017 827 1031Q862 1045 897 1071Q1036 1173 1036 1416Q1036 1680 893 1832Q776 1955 631 1955Q487 1955 468 1947Q423 1927 423 1819Q423 1739 421 1539Q419 1339 415 1017M1247 1359Q1176 1138 965 949Q952 931 875 911Q799 892 684.50 883Q570 874 415 874L415 188Q415 146 439 110.50Q463 75 505 44Q548 13 588 0L5 0Q45 13 88 44Q130 75 154 110.50Q178 146 178 188L178 1847Q178 1889 154 1924Q130 1959 88 1990Q46 2021 5 2035L415 2035Q630 2070 845 2026Q1276 1937 1276 1542Q1283 1471 1247 1359Z"  horiz-adv-x="1288" vert-adv-y="2048"  />

      
      <glyph glyph-name="uni51" unicode="&#x51;" d="M1150 107L1211 118Q1291 132 1359.50 163Q1428 194 1489 239Q1371 312 1294 331Q1446 483 1623 371Q1797 596 1797 983Q1797 1410 1589 1658Q1515 1746 1421.50 1809.50Q1328 1873 1211 1905L1150 1922Q1130 1927 1109.50 1930.50Q1089 1934 1069 1936L968 1935Q951 1933 934.50 1930.50Q918 1928 901 1924L840 1909Q723 1880 630.50 1820Q538 1760 465 1675Q261 1436 261 1024Q261 611 465 371Q538 286 631 225Q724 164 840 134L901 118Q918 113 935 110.50Q952 108 968 106L1069 101Q1093 99 1113 101.50Q1133 104 1150 107M2052 983Q2052 554 1732 269Q1815 150 1926 90Q1954 76 1977 68Q2000 60 2019 58Q1930 2 1882 2Q1792 4 1657 118Q1644 129 1628.50 141Q1613 153 1596 166Q1334 0 1062 0Q681 0 382 217Q5 490 5 990Q5 1689 534 1938Q667 2001 798 2026Q929 2051 1062 2047Q1240 2042 1403.50 1973Q1567 1904 1719 1758Q2052 1438 2052 983Z"  horiz-adv-x="2058" vert-adv-y="2048"  />

      
      <glyph glyph-name="uni52" unicode="&#x52;" d="M415 1017L757 1017Q792 1017 827 1031Q862 1045 897 1071Q1036 1173 1036 1416Q1036 1680 893 1832Q776 1955 631 1955Q487 1955 468 1947Q423 1927 423 1819Q423 1739 421 1539Q419 1339 415 1017M965 949Q1017 901 1075.50 829Q1134 757 1201 658Q1373 404 1505 275Q1740 47 1933 87Q1924 67 1880 44Q1794 0 1622 0Q1450 0 1204 295Q1142 370 1089.50 443Q1037 516 993 591Q973 626 940.50 661.50Q908 697 862 732Q678 874 415 874L415 188Q415 146 439 110.50Q463 75 505 44Q548 13 588 0L5 0Q45 13 88 44Q130 75 154 110.50Q178 146 178 188L178 1847Q178 1889 154 1924Q130 1959 88 1990Q46 2021 5 2035L415 2035Q630 2070 845 2026Q1276 1937 1276 1542Q1283 1471 1247 1359Q1176 1138 965 949Z"  horiz-adv-x="1938" vert-adv-y="2048"  />

      
      <glyph glyph-name="uni53" unicode="&#x53;" d="M22 147Q5 294 53 509Q53 312 197 209Q306 131 447 131Q574 131 701 216Q848 313 848 454Q848 593 730 741Q692 789 620.50 859.50Q549 930 443 1024Q340 1116 270 1186Q200 1256 162 1307Q49 1456 49 1608Q49 1786 192 1912Q346 2048 593 2048Q806 2048 916 2009Q971 1989 982 1970L919 1616Q919 1722 846 1823Q753 1950 600 1950Q432 1950 343 1882Q258 1815 258 1694Q258 1494 608 1206Q822 1030 893 948Q1045 772 1045 592Q1045 307 786 136Q580 0 352 0Q206 0 100 73Q45 111 22 147Z"  horiz-adv-x="1050" vert-adv-y="2048"  />

      
      <glyph glyph-name="uni54" unicode="&#x54;" d="M1526 2012L1603 2048L1526 1674Q1521 1729 1493 1785Q1436 1897 1312 1897L925 1897L925 1873L923 813L923 189Q923 147 947 111.50Q971 76 1014 45Q1056 14 1097 0L510 0Q550 13 594 45Q677 106 685 189L685 813L683 1873L682 1897L296 1897Q172 1897 114 1785Q100 1757 92 1729.50Q84 1702 82 1674L5 2048L82 2012L1526 2012Z"  horiz-adv-x="1608" vert-adv-y="2048"  />

      
      <glyph glyph-name="uni55" unicode="&#x55;" d="M1463 2048L2043 2048Q2003 2034 1962 2005Q1880 1947 1872 1864L1872 957Q1872 513 1608 243Q1371 0 1049 0Q699 0 457 211Q160 470 160 964L160 1872Q145 1962 74 2015Q38 2040 5 2048L586 2048Q546 2035 503 2004Q420 1942 413 1861L411 1244L410 997Q408 626 513.50 405.50Q619 185 833 130L891 115Q928 105 957 104L1055 98Q1078 99 1098 100.50Q1118 102 1134 105L1193 115Q1292 132 1366 185Q1440 238 1491 320Q1622 528 1622 957L1622 1824Q1622 1943 1543 2007Q1504 2039 1463 2048Z"  horiz-adv-x="2048" vert-adv-y="2048"  />

      
      <glyph glyph-name="uni56" unicode="&#x56;" d="M1444 2048L2037 2048Q2020 2044 2003 2035.50Q1986 2027 1967 2014Q1895 1962 1878 1870L1021 0L1013 18L1013 0L162 1870Q147 1962 74 2014Q36 2041 5 2048L598 2048Q556 2034 514 2003Q428 1941 422 1859L1021 476L1620 1859Q1614 1942 1529 2003Q1485 2035 1444 2048Z"  horiz-adv-x="2042" vert-adv-y="2048"  />

      
      <glyph glyph-name="uni57" unicode="&#x57;" d="M1653 1363L2037 476L2637 1859Q2629 1942 2545 2003Q2501 2034 2461 2048L3053 2048Q3022 2041 2984 2014Q2911 1962 2896 1870L2045 0L2045 18L2037 0L1529 1097L1021 0L1013 18L1013 0L162 1870Q147 1962 74 2014Q36 2041 5 2048L598 2048Q556 2034 514 2003Q428 1941 422 1859L1021 476L1406 1363L1529 1672L1653 1363Z"  horiz-adv-x="3058" vert-adv-y="2048"  />

      
      <glyph glyph-name="uni58" unicode="&#x58;" d="M974 1080L1513 178Q1530 86 1602 34Q1640 7 1672 0L1127 0Q1244 55 1255 190L970 618L838 846L706 618L422 190Q428 107 514 45Q556 13 598 0L5 0Q22 4 39 12.50Q56 21 75 34Q147 86 164 178L713 1063L283 1870Q266 1962 194 2014Q175 2027 158 2035.50Q141 2044 124 2048L717 2048Q675 2034 633 2003Q547 1941 541 1859L849 1303L850 1301L851 1303L1136 1859Q1130 1941 1044 2003Q1002 2034 960 2048L1553 2048Q1521 2041 1483 2014Q1411 1962 1394 1870L974 1080Z"  horiz-adv-x="1677" vert-adv-y="2048"  />

      
      <glyph glyph-name="uni59" unicode="&#x59;" d="M1062 2048L1654 2048Q1637 2044 1620 2035.50Q1603 2027 1584 2014Q1511 1962 1496 1870L949 1000L949 189Q949 147 973 111.50Q997 76 1040 45Q1082 14 1123 0L536 0Q577 14 619 45Q662 76 686 111.50Q710 147 710 189L710 991L162 1870Q147 1962 74 2014Q36 2041 5 2048L597 2048Q556 2034 513 2003Q429 1942 421 1859L830 1168L1238 1859Q1232 1941 1146 2003Q1104 2034 1062 2048Z"  horiz-adv-x="1659" vert-adv-y="2048"  />

      
      <glyph glyph-name="uni5a" unicode="&#x5a;" d="M1371 2048L1295 1904L314 118L936 118Q1062 118 1121 231Q1150 289 1153 344L1232 0L1153 0L121 0L5 0L135 253L1016 1930L386 1930Q261 1930 202 1817Q174 1762 169 1704L91 2048L1371 2048Z"  horiz-adv-x="1376" vert-adv-y="2048"  />

      
      <glyph glyph-name="uni5b" unicode="&#x5b;" d="M32 60L32 1990L495 1990L495 1820L232 1820L232 230L495 230L495 60L32 60Z"  horiz-adv-x="525" vert-adv-y="2048"  />

      
      <glyph glyph-name="uni5c" unicode="&#x5c;" d="M695 37L536 37L5 2008L166 2008L695 37Z"  horiz-adv-x="709" vert-adv-y="2048"  />

      
      <glyph glyph-name="uni5d" unicode="&#x5d;" d="M31 60L31 230L294 230L294 1820L31 1820L31 1990L494 1990L494 60L31 60Z"  horiz-adv-x="525" vert-adv-y="2048"  />

      
      <glyph glyph-name="uni5e" unicode="&#x5e;" d="M423 1447L279 1835L131 1443L9 1443L227 1971L334 1971L550 1447L423 1447Z"  horiz-adv-x="559" vert-adv-y="2048"  />

      
      <glyph glyph-name="uni5f" unicode="&#x5f;" d="M498 91L1047 91L1047 0L498 0L498 0L357 0L357 0L9 0L9 91L357 91L498 91Z"  horiz-adv-x="1057" vert-adv-y="2048"  />

      
      <glyph glyph-name="uni61" unicode="&#x61;" d="M696 902L1198 900L951 1592L696 902M1982 0L1335 0Q1380 66 1492 98L1229 777L664 777L448 130Q448 71 527 29Q568 9 605 0L5 0Q135 16 212 104Q232 126 244 147Q256 168 264 188L966 2048Q1323 1179 1519.50 710Q1716 241 1751 173Q1794 88 1893 35Q1918 22 1940 13.50Q1962 5 1982 0Z"  horiz-adv-x="1988" vert-adv-y="2048"  />

      
      <glyph glyph-name="uni62" unicode="&#x62;" d="M486 101Q510 93 661 93Q806 93 923 216Q1066 368 1066 632Q1066 875 926 977Q891 1003 856.50 1017Q822 1031 787 1031L421 1031Q425 709 427 508.50Q429 308 429 229Q429 122 486 101M486 1947Q429 1926 429 1819Q429 1739 427 1580Q425 1421 421 1180L787 1180Q843 1199 903 1248Q1019 1344 1019 1488Q1019 1751 899 1868Q809 1955 661 1955Q510 1955 486 1947M934 1106Q941 1101 942 1099Q1153 910 1224 689Q1259 576 1252 506Q1252 208 1002 82Q915 39 806 19.50Q697 0 563 0L5 0Q20 5 36 13L5 0Q46 17 88 51Q130 85 154 122Q178 159 178 201L178 1847Q178 1889 154 1926Q130 1963 88 1997Q46 2031 5 2048L36 2035Q20 2043 5 2048L483 2048Q627 2048 734.50 2032.50Q842 2017 914 1991Q1181 1892 1181 1614Q1159 1437 1100 1311.50Q1041 1186 942 1112Q941 1109 934 1106Z"  horiz-adv-x="1264" vert-adv-y="2048"  />

      
      <glyph glyph-name="uni63" unicode="&#x63;" d="M1757 465L1810 159Q1762 120 1655 79Q1445 0 1164 0Q1148 0 1131.50 0Q1115 0 1098 1Q617 18 337 262Q177 401 99 601.50Q21 802 17 1065Q15 1189 42 1311Q69 1433 134 1556Q199 1679 291.50 1773.50Q384 1868 504.50 1931Q625 1994 773.50 2024Q922 2054 1099 2048Q1384 2038 1561.50 2011Q1739 1984 1810 1962L1742 1509Q1721 1621 1633 1733Q1457 1957 1121 1957Q715 1957 479 1721Q241 1482 241 1061Q241 660 567 379Q719 249 884.50 184Q1050 119 1233 121Q1269 121 1312.50 134.50Q1356 148 1407 171Q1610 263 1757 465Z"  horiz-adv-x="1815" vert-adv-y="2048"  />

      
      <glyph glyph-name="uni64" unicode="&#x64;" d="M443 211Q498 160 574.50 138Q651 116 751 118Q929 120 1091 185.50Q1253 251 1402 386Q1721 672 1721 1068Q1721 1478 1488 1713Q1259 1945 861 1945Q607 1945 443 1811L443 211M5 2048L883 2048Q1572 2048 1826 1560Q1889 1437 1915.50 1316Q1942 1195 1940 1072Q1936 803 1855 599.50Q1774 396 1606 253Q1308 0 819 0L5 0L107 34Q196 74 207 127L207 1900Q215 1924 193 1952Q149 2011 5 2048Z"  horiz-adv-x="1957" vert-adv-y="2048"  />

      
      <glyph glyph-name="uni65" unicode="&#x65;" d="M5 2012L1056 2012L1133 2048L1056 1674Q1051 1729 1023 1785Q966 1897 842 1897L453 1897L453 1131L881 1131Q944 1131 994.50 1149Q1045 1167 1085 1199L1035 798Q1034 852 1000 907Q934 1015 780 1015L453 1015L453 255Q485 213 547 169Q671 83 812 83Q954 83 1079 218Q1142 287 1174 353L1133 0L41 0Q83 15 128 47Q216 113 216 202Q216 344 213 1873Q167 1966 5 2012Z"  horiz-adv-x="1179" vert-adv-y="2048"  />

      
      <glyph glyph-name="uni66" unicode="&#x66;" d="M453 1131L881 1131Q944 1131 994.50 1149Q1045 1167 1085 1199L1035 798Q1034 852 1000 907Q934 1015 780 1015L453 1015L453 255L452 222L452 189Q452 147 476 111.50Q500 76 543 45Q585 14 626 0L40 0Q81 14 123 45Q206 106 214 189L214 813L215 813L213 1873Q167 1966 5 2012L1056 2012L1133 2048L1056 1674Q1051 1729 1023 1785Q966 1897 842 1897L453 1897L453 1131Z"  horiz-adv-x="1138" vert-adv-y="2048"  />

      
      <glyph glyph-name="uni67" unicode="&#x67;" d="M1548 216L1548 849Q1556 872 1533 902Q1490 962 1341 1000L1996 1000Q1847 962 1804 902Q1781 872 1789 849L1789 142Q1744 107 1645 71Q1443 0 1164 0Q659 0 359 243Q187 383 104.50 587Q22 791 17 1065Q15 1189 42 1311Q69 1433 134 1556Q199 1679 291.50 1773.50Q384 1868 504.50 1931Q625 1994 773.50 2024Q922 2054 1099 2048Q1384 2038 1562 2011Q1740 1984 1811 1962L1742 1509Q1721 1621 1633 1733Q1457 1958 1121 1958Q714 1958 479 1721Q241 1482 241 1061Q241 660 567 379Q719 249 884.50 186.50Q1050 124 1233 121Q1335 119 1413 141.50Q1491 164 1548 216Z"  horiz-adv-x="2001" vert-adv-y="2048"  />

      
      <glyph glyph-name="uni68" unicode="&#x68;" d="M1783 1859L1783 189Q1783 147 1807 111.50Q1831 76 1874 45Q1916 14 1957 0L1370 0Q1410 13 1454 45Q1496 76 1520 111.50Q1544 147 1544 189L1544 1052L418 1052L418 189Q418 147 442 111.50Q466 76 508 45Q551 13 592 0L5 0Q46 14 88 45Q131 76 155 111.50Q179 147 179 189L179 1859Q179 1901 155 1936.50Q131 1972 88 2003Q46 2034 5 2048L592 2048Q551 2034 508 2003Q466 1972 442 1936.50Q418 1901 418 1859L418 1194L1544 1194L1544 1859Q1544 1901 1520 1936.50Q1496 1972 1454 2003Q1410 2034 1370 2048L1957 2048Q1916 2034 1874 2003Q1831 1972 1807 1936.50Q1783 1901 1783 1859Z"  horiz-adv-x="1962" vert-adv-y="2048"  />

      
      <glyph glyph-name="uni69" unicode="&#x69;" d="M418 1859L418 189Q418 147 442 111.50Q466 76 508 45Q551 13 592 0L5 0Q46 14 88 45Q131 76 155 111.50Q179 147 179 189L179 1859Q179 1901 155 1936.50Q131 1972 88 2003Q46 2034 5 2048L592 2048Q551 2034 508 2003Q466 1972 442 1936.50Q418 1901 418 1859Z"  horiz-adv-x="597" vert-adv-y="2048"  />

      
      <glyph glyph-name="uni6a" unicode="&#x6a;" d="M659 1859L659 308Q659 228 618 152Q535 0 318 0Q147 0 57 44Q14 66 5 88Q212 45 307 126Q376 185 420 365L420 1859Q420 1901 396 1936.50Q372 1972 329 2003Q287 2034 246 2048L833 2048Q792 2034 750 2003Q707 1972 683 1936.50Q659 1901 659 1859Z"  horiz-adv-x="838" vert-adv-y="2048"  />

      
      <glyph glyph-name="uni6b" unicode="&#x6b;" d="M701 1159L1544 305Q1602 246 1655 196.50Q1708 147 1758 109Q1808 71 1856 45Q1904 19 1952 7L1384 7Q1414 7 1433 18Q1475 41 1434 100L546 1007L417 881L417 189Q425 106 508 45Q551 13 592 0L5 0Q46 14 88 45Q131 76 155 111.50Q179 147 179 189L179 1859Q179 1901 155 1936.50Q131 1972 88 2003Q46 2034 5 2048L592 2048Q455 2002 423 1890L419 1186L1185 1942Q1237 2009 1196 2035Q1176 2048 1144 2048L1712 2048Q1664 2036 1616.50 2009.50Q1569 1983 1519 1944.50Q1469 1906 1416 1857Q1363 1808 1304 1750L701 1159Z"  horiz-adv-x="1957" vert-adv-y="2048"  />

      
      <glyph glyph-name="uni6c" unicode="&#x6c;" d="M461 1912Q460 1910 461 1911.50Q462 1913 461 1912Q459 1134 456.50 706Q454 278 454 205L461 1912M557 172Q681 85 827 85Q972 85 1098 222Q1130 257 1154 291Q1178 325 1195 359L1153 0L41 0Q87 15 130 48Q219 116 219 205Q219 350 216 1906Q171 2000 5 2048L669 2048Q519 2005 461 1912L461 260Q478 238 501.50 216Q525 194 557 172Z"  horiz-adv-x="1200" vert-adv-y="2048"  />

      
      <glyph glyph-name="uni6d" unicode="&#x6d;" d="M1239 41L1237 39L1237 40L1236 40L1229 47L554 1316L413 276L413 211Q421 128 503 68Q545 37 586 23L5 23Q25 30 45.50 41.50Q66 53 87 68Q129 99 150.50 134Q172 169 177 211L412 2048L1236 383L2085 2024L2390 187Q2396 106 2480 44Q2524 13 2562 0L1982 0Q2020 13 2064 44Q2106 75 2130 110Q2154 145 2154 187L2154 253L1919 1269L1239 41Z"  horiz-adv-x="2568" vert-adv-y="2048"  />

      
      <glyph glyph-name="uni6e" unicode="&#x6e;" d="M1495 2048L2082 2048Q2041 2034 1999 2003Q1956 1972 1932 1936.50Q1908 1901 1908 1859L1908 0L1907 2L1907 0L418 1545L418 189Q418 147 442 111.50Q466 76 509 45Q551 14 592 0L5 0Q46 14 88 45Q131 76 155 111.50Q179 147 179 189L179 2048L1669 484L1669 1859Q1669 1901 1645 1936.50Q1621 1972 1578 2003Q1536 2034 1495 2048Z"  horiz-adv-x="2087" vert-adv-y="2048"  />

      
      <glyph glyph-name="uni6f" unicode="&#x6f;" d="M1211 1905L1211 118Q1443 168 1589 329Q1797 558 1797 983Q1797 1410 1589 1658Q1441 1835 1211 1905M465 1675Q261 1436 261 1024Q261 611 465 371Q610 201 840 134L840 1909Q610 1843 465 1675M1069 1936L1069 101Q1106 102 1150 107L1150 1922Q1130 1927 1109.50 1930.50Q1089 1934 1069 1936M968 106L968 1935Q951 1933 934.50 1930.50Q918 1928 901 1924L901 118Q934 111 968 106M534 1938Q667 2001 798 2026Q929 2051 1062 2047Q1240 2042 1403.50 1973Q1567 1904 1719 1758Q2052 1438 2052 983Q2052 537 1709 249Q1412 0 1062 0Q681 0 382 217Q5 490 5 990Q5 1689 534 1938Z"  horiz-adv-x="2058" vert-adv-y="2048"  />

      
      <glyph glyph-name="uni70" unicode="&#x70;" d="M415 1017L757 1017Q792 1017 827 1031Q862 1045 897 1071Q1036 1173 1036 1416Q1036 1680 893 1832Q776 1955 631 1955Q487 1955 468 1947Q423 1927 423 1819Q423 1739 421 1539Q419 1339 415 1017M1247 1359Q1176 1138 965 949Q952 931 875 911Q799 892 684.50 883Q570 874 415 874L415 188Q415 146 439 110.50Q463 75 505 44Q548 13 588 0L5 0Q45 13 88 44Q130 75 154 110.50Q178 146 178 188L178 1847Q178 1889 154 1924Q130 1959 88 1990Q46 2021 5 2035L415 2035Q630 2070 845 2026Q1276 1937 1276 1542Q1283 1471 1247 1359Z"  horiz-adv-x="1288" vert-adv-y="2048"  />

      
      <glyph glyph-name="uni71" unicode="&#x71;" d="M1150 107L1211 118Q1291 132 1359.50 163Q1428 194 1489 239Q1371 312 1294 331Q1446 483 1623 371Q1797 596 1797 983Q1797 1410 1589 1658Q1515 1746 1421.50 1809.50Q1328 1873 1211 1905L1150 1922Q1130 1927 1109.50 1930.50Q1089 1934 1069 1936L968 1935Q951 1933 934.50 1930.50Q918 1928 901 1924L840 1909Q723 1880 630.50 1820Q538 1760 465 1675Q261 1436 261 1024Q261 611 465 371Q538 286 631 225Q724 164 840 134L901 118Q918 113 935 110.50Q952 108 968 106L1069 101Q1093 99 1113 101.50Q1133 104 1150 107M2052 983Q2052 554 1732 269Q1815 150 1926 90Q1954 76 1977 68Q2000 60 2019 58Q1930 2 1882 2Q1792 4 1657 118Q1644 129 1628.50 141Q1613 153 1596 166Q1334 0 1062 0Q681 0 382 217Q5 490 5 990Q5 1689 534 1938Q667 2001 798 2026Q929 2051 1062 2047Q1240 2042 1403.50 1973Q1567 1904 1719 1758Q2052 1438 2052 983Z"  horiz-adv-x="2058" vert-adv-y="2048"  />

      
      <glyph glyph-name="uni72" unicode="&#x72;" d="M415 1017L757 1017Q792 1017 827 1031Q862 1045 897 1071Q1036 1173 1036 1416Q1036 1680 893 1832Q776 1955 631 1955Q487 1955 468 1947Q423 1927 423 1819Q423 1739 421 1539Q419 1339 415 1017M965 949Q1017 901 1075.50 829Q1134 757 1201 658Q1373 404 1505 275Q1740 47 1933 87Q1924 67 1880 44Q1794 0 1622 0Q1450 0 1204 295Q1142 370 1089.50 443Q1037 516 993 591Q973 626 940.50 661.50Q908 697 862 732Q678 874 415 874L415 188Q415 146 439 110.50Q463 75 505 44Q548 13 588 0L5 0Q45 13 88 44Q130 75 154 110.50Q178 146 178 188L178 1847Q178 1889 154 1924Q130 1959 88 1990Q46 2021 5 2035L415 2035Q630 2070 845 2026Q1276 1937 1276 1542Q1283 1471 1247 1359Q1176 1138 965 949Z"  horiz-adv-x="1938" vert-adv-y="2048"  />

      
      <glyph glyph-name="uni73" unicode="&#x73;" d="M22 147Q5 294 53 509Q53 312 197 209Q306 131 447 131Q574 131 701 216Q848 313 848 454Q848 593 730 741Q692 789 620.50 859.50Q549 930 443 1024Q340 1116 270 1186Q200 1256 162 1307Q49 1456 49 1608Q49 1786 192 1912Q346 2048 593 2048Q806 2048 916 2009Q971 1989 982 1970L919 1616Q919 1722 846 1823Q753 1950 600 1950Q432 1950 343 1882Q258 1815 258 1694Q258 1494 608 1206Q822 1030 893 948Q1045 772 1045 592Q1045 307 786 136Q580 0 352 0Q206 0 100 73Q45 111 22 147Z"  horiz-adv-x="1050" vert-adv-y="2048"  />

      
      <glyph glyph-name="uni74" unicode="&#x74;" d="M1526 2012L1603 2048L1526 1674Q1521 1729 1493 1785Q1436 1897 1312 1897L925 1897L925 1873L923 813L923 189Q923 147 947 111.50Q971 76 1014 45Q1056 14 1097 0L510 0Q550 13 594 45Q677 106 685 189L685 813L683 1873L682 1897L296 1897Q172 1897 114 1785Q100 1757 92 1729.50Q84 1702 82 1674L5 2048L82 2012L1526 2012Z"  horiz-adv-x="1608" vert-adv-y="2048"  />

      
      <glyph glyph-name="uni75" unicode="&#x75;" d="M1463 2048L2043 2048Q2003 2034 1962 2005Q1880 1947 1872 1864L1872 957Q1872 513 1608 243Q1371 0 1049 0Q699 0 457 211Q160 470 160 964L160 1872Q145 1962 74 2015Q38 2040 5 2048L586 2048Q546 2035 503 2004Q420 1942 413 1861L411 1244L410 997Q408 626 513.50 405.50Q619 185 833 130L891 115Q928 105 957 104L1055 98Q1078 99 1098 100.50Q1118 102 1134 105L1193 115Q1292 132 1366 185Q1440 238 1491 320Q1622 528 1622 957L1622 1824Q1622 1943 1543 2007Q1504 2039 1463 2048Z"  horiz-adv-x="2048" vert-adv-y="2048"  />

      
      <glyph glyph-name="uni76" unicode="&#x76;" d="M1444 2048L2037 2048Q2020 2044 2003 2035.50Q1986 2027 1967 2014Q1895 1962 1878 1870L1021 0L1013 18L1013 0L162 1870Q147 1962 74 2014Q36 2041 5 2048L598 2048Q556 2034 514 2003Q428 1941 422 1859L1021 476L1620 1859Q1614 1942 1529 2003Q1485 2035 1444 2048Z"  horiz-adv-x="2042" vert-adv-y="2048"  />

      
      <glyph glyph-name="uni77" unicode="&#x77;" d="M1653 1363L2037 476L2637 1859Q2629 1942 2545 2003Q2501 2034 2461 2048L3053 2048Q3022 2041 2984 2014Q2911 1962 2896 1870L2045 0L2045 18L2037 0L1529 1097L1021 0L1013 18L1013 0L162 1870Q147 1962 74 2014Q36 2041 5 2048L598 2048Q556 2034 514 2003Q428 1941 422 1859L1021 476L1406 1363L1529 1672L1653 1363Z"  horiz-adv-x="3058" vert-adv-y="2048"  />

      
      <glyph glyph-name="uni78" unicode="&#x78;" d="M974 1080L1513 178Q1530 86 1602 34Q1640 7 1672 0L1127 0Q1244 55 1255 190L970 618L838 846L706 618L422 190Q428 107 514 45Q556 13 598 0L5 0Q22 4 39 12.50Q56 21 75 34Q147 86 164 178L713 1063L283 1870Q266 1962 194 2014Q175 2027 158 2035.50Q141 2044 124 2048L717 2048Q675 2034 633 2003Q547 1941 541 1859L849 1303L850 1301L851 1303L1136 1859Q1130 1941 1044 2003Q1002 2034 960 2048L1553 2048Q1521 2041 1483 2014Q1411 1962 1394 1870L974 1080Z"  horiz-adv-x="1677" vert-adv-y="2048"  />

      
      <glyph glyph-name="uni79" unicode="&#x79;" d="M1062 2048L1654 2048Q1637 2044 1620 2035.50Q1603 2027 1584 2014Q1511 1962 1496 1870L949 1000L949 189Q949 147 973 111.50Q997 76 1040 45Q1082 14 1123 0L536 0Q577 14 619 45Q662 76 686 111.50Q710 147 710 189L710 991L162 1870Q147 1962 74 2014Q36 2041 5 2048L597 2048Q556 2034 513 2003Q429 1942 421 1859L830 1168L1238 1859Q1232 1941 1146 2003Q1104 2034 1062 2048Z"  horiz-adv-x="1659" vert-adv-y="2048"  />

      
      <glyph glyph-name="uni7a" unicode="&#x7a;" d="M1371 2048L1295 1904L314 118L936 118Q1062 118 1121 231Q1150 289 1153 344L1232 0L1153 0L121 0L5 0L135 253L1016 1930L386 1930Q261 1930 202 1817Q174 1762 169 1704L91 2048L1371 2048Z"  horiz-adv-x="1376" vert-adv-y="2048"  />

      
      <glyph glyph-name="uni7b" unicode="&#x7b;" d="M568 60Q397 60 285 142Q173 224 173 358Q173 430 210 572Q247 714 247 791Q247 989 38 1003L38 1087Q136 1094 192 1156Q247 1217 247 1316Q247 1386 210 1509Q173 1633 173 1696Q173 1823 284 1903Q396 1982 559 1982L707 1982L707 1849L532 1849Q368 1849 368 1665Q368 1598 399 1498Q431 1394 431 1335Q431 1177 206 1047Q312 1003 371 935Q431 866 431 797Q431 734 399 617Q368 503 368 428Q368 200 631 200L707 200L707 60L568 60Z"  horiz-adv-x="752" vert-adv-y="2048"  />

      
      <glyph glyph-name="uni7c" unicode="&#x7c;" d="M38 84L38 1965L184 1965L184 84L38 84Z"  horiz-adv-x="226" vert-adv-y="2048"  />

      
      <glyph glyph-name="uni7d" unicode="&#x7d;" d="M42 60L42 200L118 200Q381 200 381 428Q381 465 373 512Q365 559 350 617Q333 675 325.50 720Q318 765 318 797Q318 866 378 935Q437 1003 543 1047Q318 1177 318 1335Q318 1366 325.50 1406.50Q333 1447 350 1498Q365 1549 373 1591Q381 1633 381 1665Q381 1849 217 1849L42 1849L42 1982L190 1982Q353 1982 465 1903Q576 1823 576 1696Q576 1665 566.50 1618.50Q557 1572 539 1509Q502 1386 502 1316Q502 1217 557 1156Q611 1095 711 1087L711 1003Q502 990 502 791Q502 714 539 572Q557 500 566.50 446.50Q576 393 576 358Q576 225 464 142Q352 60 181 60L42 60Z"  horiz-adv-x="752" vert-adv-y="2048"  />

      
      <glyph glyph-name="uni2039" unicode="&#x2039;" d="M761 458L22 976L22 1099L761 1613L761 1452L190 1037L761 619L761 458Z"  horiz-adv-x="783" vert-adv-y="2048"  />

      
      <glyph glyph-name="uni203A" unicode="&#x203A;" d="M22 619L593 1037L22 1452L22 1613L761 1099L761 976L22 458L22 619Z"  horiz-adv-x="783" vert-adv-y="2048"  />

      
      <glyph glyph-name="unia9" unicode="&#xa9;" d="M1146 1616L1138 428Q1223 445 1301.50 481.50Q1380 518 1434 572Q1584 723 1584 1002Q1584 1285 1434 1447Q1380 1505 1305 1549Q1230 1593 1146 1616M622 1458Q474 1303 474 1029Q474 757 622 600Q675 543 754 501Q833 459 917 436L907 1617Q823 1595 749 1554.50Q675 1514 622 1458M1058 1630L1058 422Q1065 422 1075.50 423Q1086 424 1097.50 424.50Q1109 425 1119.50 426Q1130 427 1138 428L1146 1616Q1138 1617 1127 1620Q1116 1623 1103.50 1625.50Q1091 1628 1079 1629.50Q1067 1631 1058 1630M1058 422L1058 1630Q1050 1631 1028.50 1630Q1007 1629 983 1627Q959 1625 937.50 1622.50Q916 1620 907 1617L917 436Q923 435 941.50 432.50Q960 430 982 428Q1004 426 1025.50 424Q1047 422 1058 422M672 1631Q768 1673 862.50 1689Q957 1705 1053 1703Q1182 1700 1300 1654.50Q1418 1609 1528 1513Q1769 1303 1769 1002Q1769 710 1521 519Q1306 355 1053 355Q779 355 562 498Q289 678 289 1007Q289 1467 672 1631M1284 816L1304 703Q1286 688 1247 673Q1209 658 1164 651Q1119 644 1068 644L1044 644Q868 650 767 741Q708 792 680 866Q652 940 650 1038Q649 1084 659 1129.50Q669 1175 693 1220Q741 1312 828 1359.50Q915 1407 1044 1403Q1149 1399 1213.50 1389Q1278 1379 1304 1371L1279 1203Q1272 1245 1239 1286Q1174 1369 1052 1369Q904 1369 819 1281Q732 1194 732 1037Q732 887 851 784Q960 688 1093 688Q1107 689 1122.50 694Q1138 699 1157 707Q1231 740 1284 816Z"  horiz-adv-x="2058" vert-adv-y="2048"  />

      
      <glyph glyph-name="uniab" unicode="&#xab;" d="M761 458L22 976L22 1099L761 1613L761 1452L190 1037L761 619L761 458M1161 458L422 976L422 1099L1161 1613L1161 1452L590 1037L1161 619L1161 458Z"  horiz-adv-x="1182" vert-adv-y="2048"  />

      
      <glyph glyph-name="uniae" unicode="&#xae;" d="M1146 1616L1138 428Q1223 445 1301.50 481.50Q1380 518 1434 572Q1584 723 1584 1002Q1584 1283 1434 1447Q1380 1505 1305 1549Q1230 1593 1146 1616M622 1458Q474 1303 474 1029Q474 757 622 600Q675 543 754 501Q833 459 917 436L907 1617Q823 1595 749 1554.50Q675 1514 622 1458M1058 1630L1058 422Q1065 422 1075.50 423Q1086 424 1097.50 424.50Q1109 425 1119.50 426Q1130 427 1138 428L1146 1616Q1138 1617 1127 1620Q1116 1623 1103.50 1625.50Q1091 1628 1079 1629.50Q1067 1631 1058 1630M1058 422L1058 1630Q1050 1631 1028.50 1630Q1007 1629 983 1627Q959 1625 937.50 1622.50Q916 1620 907 1617L917 436Q923 435 941.50 432.50Q960 430 982 428Q1004 426 1025.50 424Q1047 422 1058 422M672 1631Q768 1673 862.50 1689Q957 1705 1053 1703Q1182 1700 1300 1654.50Q1418 1609 1528 1513Q1769 1303 1769 1002Q1769 710 1521 519Q1306 355 1053 355Q779 355 562 498Q289 678 289 1007Q289 1467 672 1631M873 1017L995 1017Q1020 1017 1046 1037Q1095 1076 1095 1169Q1095 1270 1044 1327Q1003 1374 950 1374Q898 1374 892 1371Q876 1364 876 1322Q876 1261 873 1017M1070 991Q1106 955 1154 880Q1185 831 1212.50 795Q1240 759 1263 734Q1347 647 1416 663Q1414 656 1397 646Q1368 630 1305 630Q1243 630 1155 742Q1133 771 1114.50 798.50Q1096 826 1080 855Q1072 868 1061 881Q1050 894 1033 908Q967 962 873 962L873 701Q873 672 905 646Q922 634 935 630L727 630Q739 634 756 646Q771 658 780 671.50Q789 685 789 701L789 1333Q789 1349 780 1362.50Q771 1376 756 1387Q742 1398 727 1405L873 1405Q951 1417 1027 1401Q1181 1368 1181 1217Q1183 1203 1180 1185.50Q1177 1168 1171 1147Q1146 1064 1070 991Z"  horiz-adv-x="2058" vert-adv-y="2048"  />

      
      <glyph glyph-name="unibb" unicode="&#xbb;" d="M22 619L593 1037L22 1452L22 1613L761 1099L761 976L22 458L22 619M422 619L993 1037L422 1452L422 1613L1161 1099L1161 976L422 458L422 619Z"  horiz-adv-x="1182" vert-adv-y="2048"  />

      
      <glyph glyph-name="uni0401" unicode="&#x0401;" d="M776 2169Q776 2204 802 2230Q826 2256 862 2256Q897 2256 923 2230Q949 2204 949 2169Q949 2133 923 2107Q897 2081 862 2081Q826 2081 802 2107Q776 2133 776 2169M313 2169Q313 2205 338 2230Q364 2256 399 2256Q434 2256 460 2230Q485 2205 485 2169Q485 2132 460 2107Q434 2081 399 2081Q364 2081 338 2107Q313 2132 313 2169M5 2012Q167 1966 213 1873Q216 344 216 202Q216 113 128 47Q83 15 41 0L1133 0L1174 353Q1142 287 1079 218Q954 83 812 83Q671 83 547 169Q485 213 453 255L453 1015L780 1015Q934 1015 1000 907Q1034 852 1035 798L1085 1199Q1045 1167 994.50 1149Q944 1131 881 1131L453 1131L453 1897L842 1897Q966 1897 1023 1785Q1051 1729 1056 1674L1133 2048L1056 2012L5 2012L5 2012Z"  horiz-adv-x="1179" vert-adv-y="2048"  />

      
      <glyph glyph-name="uni0410" unicode="&#x0410;" d="M696 902L1198 900L951 1592L696 902M1982 0L1335 0Q1380 66 1492 98L1229 777L664 777L448 130Q448 71 527 29Q568 9 605 0L5 0Q135 16 212 104Q232 126 244 147Q256 168 264 188L966 2048Q1323 1179 1519.50 710Q1716 241 1751 173Q1794 88 1893 35Q1918 22 1940 13.50Q1962 5 1982 0Z"  horiz-adv-x="1988" vert-adv-y="2048"  />

      
      <glyph glyph-name="uni0411" unicode="&#x0411;" d="M466 0L604 0Q738 0 847 19.50Q956 39 1043 82Q1293 208 1293 506Q1300 576 1265 689Q1247 744 1226.50 793.50Q1206 843 1177.50 889.50Q1149 936 1111 981.50Q1073 1027 1020 1074Q1002 1090 977.50 1100.50Q953 1111 926.50 1118Q900 1125 874.50 1128Q849 1131 828 1133L463 1132L466 0M527 101Q470 122 470 229Q470 308 468.50 508Q467 708 463 1030L828 1031Q863 1031 897.50 1017Q932 1003 967 977Q1107 875 1107 632Q1107 368 964 216Q847 93 702 93Q551 93 527 101M466 0L5 0Q89 24 141 61Q193 98 216 146Q219 1701 219 1847Q219 1936 130 2004Q87 2037 41 2052L1153 2052L1195 1693Q1178 1727 1154 1761Q1130 1795 1098 1830Q972 1967 827 1967Q681 1967 557 1880Q525 1858 501.50 1836Q478 1814 461 1792L463 1132L466 0Z"  horiz-adv-x="1288" vert-adv-y="2048"  />

      
      <glyph glyph-name="uni0412" unicode="&#x0412;" d="M486 101Q510 93 661 93Q806 93 923 216Q1066 368 1066 632Q1066 875 926 977Q891 1003 856.50 1017Q822 1031 787 1031L421 1031Q425 709 427 508.50Q429 308 429 229Q429 122 486 101M486 1947Q429 1926 429 1819Q429 1739 427 1580Q425 1421 421 1180L787 1180Q843 1199 903 1248Q1019 1344 1019 1488Q1019 1751 899 1868Q809 1955 661 1955Q510 1955 486 1947M934 1106Q941 1101 942 1099Q1153 910 1224 689Q1259 576 1252 506Q1252 208 1002 82Q915 39 806 19.50Q697 0 563 0L5 0Q20 5 36 13L5 0Q46 17 88 51Q130 85 154 122Q178 159 178 201L178 1847Q178 1889 154 1926Q130 1963 88 1997Q46 2031 5 2048L36 2035Q20 2043 5 2048L483 2048Q627 2048 734.50 2032.50Q842 2017 914 1991Q1181 1892 1181 1614Q1159 1437 1100 1311.50Q1041 1186 942 1112Q941 1109 934 1106Z"  horiz-adv-x="1264" vert-adv-y="2048"  />

      
      <glyph glyph-name="uni0413" unicode="&#x0413;" d="M557 1880Q525 1858 501.50 1836Q478 1814 461 1792L461 136Q519 43 669 0L5 0Q171 48 216 142Q217 920 218 1347Q219 1774 219 1847Q219 1936 130 2004Q87 2037 41 2052L1153 2052L1195 1693Q1178 1727 1154 1761Q1130 1795 1098 1830Q972 1967 827 1967Q681 1967 557 1880M454 1847Q454 1774 456.50 1344Q459 914 461 136Q462 135 461 136.50Q460 138 461 136L454 1847Z"  horiz-adv-x="1200" vert-adv-y="2048"  />

      
      <glyph glyph-name="uni0414" unicode="&#x0414;" d="M2045 181L2045-191Q2042-181 2037.50-167.50Q2033-154 2027-140Q2021-126 2014.50-112.50Q2008-99 2000-88Q1969-45 1933.50-21.50Q1898 2 1856 2L186 2Q144 2 108.50-21.50Q73-45 42-88Q34-99 27.50-112.50Q21-126 15.50-140Q10-154 5.50-167.50Q1-181-2-191L-2 181L1856 181L2045 181M74 34Q147 86 162 178L1013 2048L1013 2030L1021 2048L1878 178Q1895 84 1967 34L74 34M1529 45Q1614 106 1620 189L1021 1572L422 189Q428 107 514 45L1529 45Z"  horiz-adv-x="2042" vert-adv-y="2048"  />

      
      <glyph glyph-name="uni0415" unicode="&#x0415;" d="M5 2012L1056 2012L1133 2048L1056 1674Q1051 1729 1023 1785Q966 1897 842 1897L453 1897L453 1131L881 1131Q944 1131 994.50 1149Q1045 1167 1085 1199L1035 798Q1034 852 1000 907Q934 1015 780 1015L453 1015L453 255Q485 213 547 169Q671 83 812 83Q954 83 1079 218Q1142 287 1174 353L1133 0L41 0Q83 15 128 47Q216 113 216 202Q216 344 213 1873Q167 1966 5 2012Z"  horiz-adv-x="1179" vert-adv-y="2048"  />

      
      <glyph glyph-name="uni0416" unicode="&#x0416;" d="M2051 1159L2894 305Q2953 245 3006 195.50Q3059 146 3109 108Q3159 70 3206.50 44.50Q3254 19 3302 7L2734 7Q2764 7 2783 18Q2825 41 2784 100L1896 1007L1767 881L1767 189Q1771 147 1793 111.50Q1815 76 1858 45Q1899 14 1942 0L1355 0Q1394 13 1438 45Q1480 76 1504.50 111.50Q1529 147 1529 189L1529 1859Q1529 1901 1504.50 1936.50Q1480 1972 1438 2003Q1394 2035 1355 2048L1942 2048Q1805 2002 1773 1890L1769 1186L2535 1942Q2587 2008 2546 2035Q2524 2048 2494 2048L3062 2048Q3014 2036 2966 2009.50Q2918 1983 2868.50 1944.50Q2819 1906 2765.50 1857Q2712 1808 2654 1750L2051 1159M2051 1159L2894 305Q2953 245 3006 195.50Q3059 146 3109 108Q3159 70 3206.50 44.50Q3254 19 3302 7L2734 7Q2764 7 2783 18Q2825 41 2784 100L1896 1007L1767 881L1767 189Q1771 147 1793 111.50Q1815 76 1858 45Q1899 14 1942 0L1355 0Q1394 13 1438 45Q1480 76 1504.50 111.50Q1529 147 1529 189L1529 1859Q1529 1901 1504.50 1936.50Q1480 1972 1438 2003Q1394 2035 1355 2048L1942 2048Q1805 2002 1773 1890L1769 1186L2535 1942Q2587 2008 2546 2035Q2524 2048 2494 2048L3062 2048Q3014 2036 2966 2009.50Q2918 1983 2868.50 1944.50Q2819 1906 2765.50 1857Q2712 1808 2654 1750L2051 1159M1251 1159L408 305Q349 245 295.50 195.50Q242 146 192.50 108Q143 70 95.50 44.50Q48 19 0 7L568 7Q537 7 519 18Q477 41 518 100L1406 1007L1535 881L1535 189Q1527 106 1444 45Q1400 13 1360 0L1947 0Q1906 14 1864 45Q1821 76 1797 111.50Q1773 147 1773 189L1773 1859Q1773 1901 1797 1936.50Q1821 1972 1864 2003Q1906 2034 1947 2048L1360 2048Q1497 2002 1529 1890L1533 1186L767 1942Q715 2009 756 2035Q776 2048 808 2048L240 2048Q288 2036 335.50 2009.50Q383 1983 433 1944.50Q483 1906 536 1857Q589 1808 648 1750L1251 1159Z"  horiz-adv-x="3301" vert-adv-y="2048"  />

      
      <glyph glyph-name="uni0417" unicode="&#x0417;" d="M319 989L284 1174Q317 1198 388 1223Q459 1247 537 1265Q615 1283 709 1283Q714 1283 737.50 1281Q761 1279 793 1274Q825 1269 862 1260Q899 1251 931 1238Q982 1217 1029.50 1173.50Q1077 1130 1117 1077Q1142 1043 1158.50 1000Q1175 957 1184.50 910.50Q1194 864 1198 816.50Q1202 769 1203.50 727Q1205 685 1204.50 651Q1204 617 1205 596Q1207 521 1188.50 447Q1170 373 1127 298Q1039 149 878.50 71.50Q718-6 480 0Q288 6 170 22.50Q52 39 4 52L49 327Q53 310 58.50 295Q64 280 72.50 266.50Q81 253 94 239Q107 225 125 210Q159 181 195.50 161Q232 141 273 128.50Q314 116 361.50 110.50Q409 105 465 105Q737 105 895 248Q935 284 965 319.50Q995 355 1015 395.50Q1035 436 1045 485Q1055 534 1055 598Q1055 659 1051 726.50Q1047 794 1036.50 856.50Q1026 919 1007.50 971Q989 1023 961 1053Q916 1101 868.50 1132.50Q821 1164 759 1179Q742 1183 714.50 1184Q687 1185 657 1183.50Q627 1182 599 1178Q571 1174 554 1167Q418 1112 319 989M284 1174L927 1930L297 1930Q172 1930 113 1817L2 2048L1202 2048L319 989L284 1174Z"  horiz-adv-x="1209" vert-adv-y="2048"  />

      
      <glyph glyph-name="uni0418" unicode="&#x0418;" d="M592 2048Q551 2034 509 2003Q466 1972 442 1936.50Q418 1901 418 1859L418 484L1908 2048L1908 189Q1908 147 1932 111.50Q1956 76 1999 45Q2041 14 2082 0L1495 0Q1536 14 1578 45Q1621 76 1645 111.50Q1669 147 1669 189L1669 1545L180 0L180 2L179 0L179 1859Q179 1901 155 1936.50Q131 1972 88 2003Q46 2034 5 2048L592 2048L592 2048Z"  horiz-adv-x="2087" vert-adv-y="2048"  />

      
      <glyph glyph-name="uni0419" unicode="&#x0419;" d="M1343 2169Q1355 2169 1366 2176Q1377 2183 1386 2195Q1394 2206 1399 2219L1399 2052Q1394 2065 1386 2076Q1365 2102 1343 2102L848 2102Q826 2102 805 2076Q797 2065 792 2052L792 2219Q797 2206 805 2195Q826 2169 848 2169L1343 2169L1343 2169M592 2048Q551 2034 509 2003Q466 1972 442 1936.50Q418 1901 418 1859L418 484L1908 2048L1908 189Q1908 147 1932 111.50Q1956 76 1999 45Q2041 14 2082 0L1495 0Q1536 14 1578 45Q1621 76 1645 111.50Q1669 147 1669 189L1669 1545L180 0L180 2L179 0L179 1859Q179 1901 155 1936.50Q131 1972 88 2003Q46 2034 5 2048L592 2048L592 2048Z"  horiz-adv-x="2087" vert-adv-y="2048"  />

      
      <glyph glyph-name="uni041A" unicode="&#x041A;" d="M701 1159L1544 305Q1602 246 1655 196.50Q1708 147 1758 109Q1808 71 1856 45Q1904 19 1952 7L1384 7Q1414 7 1433 18Q1475 41 1434 100L546 1007L417 881L417 189Q425 106 508 45Q551 13 592 0L5 0Q46 14 88 45Q131 76 155 111.50Q179 147 179 189L179 1859Q179 1901 155 1936.50Q131 1972 88 2003Q46 2034 5 2048L592 2048Q455 2002 423 1890L419 1186L1185 1942Q1237 2009 1196 2035Q1176 2048 1144 2048L1712 2048Q1664 2036 1616.50 2009.50Q1569 1983 1519 1944.50Q1469 1906 1416 1857Q1363 1808 1304 1750L701 1159Z"  horiz-adv-x="1957" vert-adv-y="2048"  />

      
      <glyph glyph-name="uni041B" unicode="&#x041B;" d="M654 1859L654 308Q654 228 613 152Q530 0 313 0Q142 0 52 44Q9 66 0 88Q207 45 302 126Q371 185 415 365L415 1859Q415 1901 391 1936.50Q367 1972 324 2003Q282 2034 241 2048L828 2048Q787 2034 745 2003Q702 1972 678 1936.50Q654 1901 654 1859M1178 136Q1179 138 1178 136.50Q1177 135 1178 136Q1179 914 1182 1341Q1185 1768 1185 1841L1178 136M1082 1874Q957 1961 812 1961Q667 1961 541 1824Q509 1789 485 1755Q461 1721 444 1687L486 2046L1598 2046Q1552 2031 1509 1998Q1420 1930 1420 1841Q1420 1697 1423 142Q1468 48 1634 0L970 0Q1120 43 1178 136L1178 1786Q1161 1808 1137.50 1830Q1114 1852 1082 1874Z"  horiz-adv-x="1634" vert-adv-y="2048"  />

      
      <glyph glyph-name="uni041C" unicode="&#x041C;" d="M1239 41L1237 39L1237 40L1236 40L1229 47L554 1316L413 276L413 211Q421 128 503 68Q545 37 586 23L5 23Q25 30 45.50 41.50Q66 53 87 68Q129 99 150.50 134Q172 169 177 211L412 2048L1236 383L2085 2024L2390 187Q2396 106 2480 44Q2524 13 2562 0L1982 0Q2020 13 2064 44Q2106 75 2130 110Q2154 145 2154 187L2154 253L1919 1269L1239 41Z"  horiz-adv-x="2568" vert-adv-y="2048"  />

      
      <glyph glyph-name="uni041D" unicode="&#x041D;" d="M1783 1859L1783 189Q1783 147 1807 111.50Q1831 76 1874 45Q1916 14 1957 0L1370 0Q1410 13 1454 45Q1496 76 1520 111.50Q1544 147 1544 189L1544 1052L418 1052L418 189Q418 147 442 111.50Q466 76 508 45Q551 13 592 0L5 0Q46 14 88 45Q131 76 155 111.50Q179 147 179 189L179 1859Q179 1901 155 1936.50Q131 1972 88 2003Q46 2034 5 2048L592 2048Q551 2034 508 2003Q466 1972 442 1936.50Q418 1901 418 1859L418 1194L1544 1194L1544 1859Q1544 1901 1520 1936.50Q1496 1972 1454 2003Q1410 2034 1370 2048L1957 2048Q1916 2034 1874 2003Q1831 1972 1807 1936.50Q1783 1901 1783 1859Z"  horiz-adv-x="1962" vert-adv-y="2048"  />

      
      <glyph glyph-name="uni041E" unicode="&#x041E;" d="M1211 1905L1211 118Q1443 168 1589 329Q1797 558 1797 983Q1797 1410 1589 1658Q1441 1835 1211 1905M465 1675Q261 1436 261 1024Q261 611 465 371Q610 201 840 134L840 1909Q610 1843 465 1675M1069 1936L1069 101Q1106 102 1150 107L1150 1922Q1130 1927 1109.50 1930.50Q1089 1934 1069 1936M968 106L968 1935Q951 1933 934.50 1930.50Q918 1928 901 1924L901 118Q934 111 968 106M534 1938Q667 2001 798 2026Q929 2051 1062 2047Q1240 2042 1403.50 1973Q1567 1904 1719 1758Q2052 1438 2052 983Q2052 537 1709 249Q1412 0 1062 0Q681 0 382 217Q5 490 5 990Q5 1689 534 1938Z"  horiz-adv-x="2058" vert-adv-y="2048"  />

      
      <glyph glyph-name="uni041F" unicode="&#x041F;" d="M418 2048L1544 2048L1544 1959Q1544 1938 1538 1936.50Q1532 1935 1520 1945Q1508 1955 1491.50 1971.50Q1475 1988 1454 2003Q1410 2034 1370 2048L1957 2048Q1916 2034 1874 2003Q1831 1972 1807 1936.50Q1783 1901 1783 1859L1783 189Q1783 147 1807 111.50Q1831 76 1874 45Q1916 14 1957 0L1370 0Q1410 13 1454 45Q1496 76 1520 111.50Q1544 147 1544 189L1544 1906L418 1906L418 189Q418 147 442 111.50Q466 76 508 45Q551 13 592 0L5 0Q46 14 88 45Q131 76 155 111.50Q179 147 179 189L179 1859Q179 1901 155 1936.50Q131 1972 88 2003Q46 2034 5 2048L592 2048Q551 2034 508 2003L418 2048Z"  horiz-adv-x="1962" vert-adv-y="2048"  />

      
      <glyph glyph-name="uni0420" unicode="&#x0420;" d="M415 1017L757 1017Q792 1017 827 1031Q862 1045 897 1071Q1036 1173 1036 1416Q1036 1680 893 1832Q776 1955 631 1955Q487 1955 468 1947Q423 1927 423 1819Q423 1739 421 1539Q419 1339 415 1017M1247 1359Q1176 1138 965 949Q952 931 875 911Q799 892 684.50 883Q570 874 415 874L415 188Q415 146 439 110.50Q463 75 505 44Q548 13 588 0L5 0Q45 13 88 44Q130 75 154 110.50Q178 146 178 188L178 1847Q178 1889 154 1924Q130 1959 88 1990Q46 2021 5 2035L415 2035Q630 2070 845 2026Q1276 1937 1276 1542Q1283 1471 1247 1359Z"  horiz-adv-x="1288" vert-adv-y="2048"  />

      
      <glyph glyph-name="uni0421" unicode="&#x0421;" d="M1757 465L1810 159Q1762 120 1655 79Q1445 0 1164 0Q1148 0 1131.50 0Q1115 0 1098 1Q617 18 337 262Q177 401 99 601.50Q21 802 17 1065Q15 1189 42 1311Q69 1433 134 1556Q199 1679 291.50 1773.50Q384 1868 504.50 1931Q625 1994 773.50 2024Q922 2054 1099 2048Q1384 2038 1561.50 2011Q1739 1984 1810 1962L1742 1509Q1721 1621 1633 1733Q1457 1957 1121 1957Q715 1957 479 1721Q241 1482 241 1061Q241 660 567 379Q719 249 884.50 184Q1050 119 1233 121Q1269 121 1312.50 134.50Q1356 148 1407 171Q1610 263 1757 465Z"  horiz-adv-x="1815" vert-adv-y="2048"  />

      
      <glyph glyph-name="uni0422" unicode="&#x0422;" d="M1526 2012L1603 2048L1526 1674Q1521 1729 1493 1785Q1436 1897 1312 1897L925 1897L925 1873L923 813L923 189Q923 147 947 111.50Q971 76 1014 45Q1056 14 1097 0L510 0Q550 13 594 45Q677 106 685 189L685 813L683 1873L682 1897L296 1897Q172 1897 114 1785Q100 1757 92 1729.50Q84 1702 82 1674L5 2048L82 2012L1526 2012Z"  horiz-adv-x="1608" vert-adv-y="2048"  />

      
      <glyph glyph-name="uni0423" unicode="&#x0423;" d="M1062 2048L1654 2048Q1637 2044 1620 2035.50Q1603 2027 1584 2014Q1511 1962 1496 1870L949 1000L430 152Q419 134 413.50 121Q408 108 407 97Q406 86 410 74.50Q414 63 423 50Q437 28 457.50 17.50Q478 7 498 0L36 0Q77 14 110 51Q118 60 131.50 78Q145 96 159.50 116Q174 136 188 156Q202 176 210 189L710 991L162 1870Q147 1962 74 2014Q36 2041 5 2048L597 2048Q556 2034 513 2003Q429 1942 421 1859L830 1168L1238 1859Q1232 1941 1146 2003Q1104 2034 1062 2048Z"  horiz-adv-x="1659" vert-adv-y="2048"  />

      
      <glyph glyph-name="uni0424" unicode="&#x0424;" d="M871 877L702 877Q689 877 671.50 878.50Q654 880 634.50 881.50Q615 883 594.50 885Q574 887 556 888Q539 890 513.50 893.50Q488 897 470 901Q467 901 459.50 901.50Q452 902 444 904Q427 906 411 910.50Q395 915 379 920Q372 922 362 926.50Q352 931 336 936Q263 995 206.50 1061.50Q150 1128 109.50 1196.50Q69 1265 44.50 1333.50Q20 1402 10 1465Q9 1472 8.50 1483.50Q8 1495 8 1506Q8 1517 8.50 1526Q9 1535 9 1537Q9 1568 10.50 1595Q12 1622 16.50 1649Q21 1676 29.50 1705.50Q38 1735 53 1770Q58 1782 68.50 1799Q79 1816 92 1833Q105 1850 118.50 1865Q132 1880 143 1890Q187 1930 241 1957.50Q295 1985 351.50 2003Q408 2021 465 2031Q522 2041 572 2047Q582 2048 599.50 2048.50Q617 2049 634 2049Q651 2049 664.50 2049Q678 2049 680 2049Q682 2049 692 2049.50Q702 2050 717 2050Q732 2050 750.50 2049.50Q769 2049 787 2047Q794 2046 807 2044Q820 2042 835 2037L1276 2037Q1266 2034 1252 2026.50Q1238 2019 1227 2013Q1217 2008 1202.50 1997Q1188 1986 1174 1973.50Q1160 1961 1148.50 1947.50Q1137 1934 1132 1924Q1130 1919 1126 1912Q1122 1905 1118.50 1898Q1115 1891 1112.50 1885.50Q1110 1880 1110 1877L871 877M865 1856Q865 1863 861 1879Q857 1895 849 1911.50Q841 1928 828.50 1940.50Q816 1953 798 1953Q795 1958 795.50 1958.50Q796 1959 797 1957.50Q798 1956 799 1954.50Q800 1953 798 1953Q792 1954 774 1955.50Q756 1957 735 1957.50Q714 1958 695.50 1958.50Q677 1959 671 1959Q668 1959 660 1958.50Q652 1958 641 1957Q630 1956 617.50 1954.50Q605 1953 594 1951Q535 1940 472 1900.50Q409 1861 360 1798Q349 1784 341 1772Q333 1760 327 1749Q303 1706 286.50 1660.50Q270 1615 262 1578Q260 1560 257.50 1541Q255 1522 253 1508Q252 1500 251.50 1486Q251 1472 250.50 1457.50Q250 1443 249.50 1432Q249 1421 249 1419Q249 1404 249.50 1384.50Q250 1365 252 1344.50Q254 1324 256.50 1303.50Q259 1283 264 1267Q266 1259 269.50 1247Q273 1235 277.50 1222.50Q282 1210 286.50 1198.50Q291 1187 294 1181Q307 1156 326.50 1129Q346 1102 369 1082Q381 1071 390 1064Q399 1057 408 1051Q417 1045 427.50 1039.50Q438 1034 454 1027Q465 1024 476.50 1022Q488 1020 493 1020L865 1020L865 1856M1109 1017L1451 1017Q1486 1017 1521 1031Q1556 1045 1591 1071Q1730 1173 1730 1416Q1730 1680 1587 1832Q1470 1955 1325 1955Q1181 1955 1162 1947Q1117 1927 1117 1819Q1117 1739 1115 1539Q1113 1339 1109 1017M1109 2035Q1324 2070 1539 2026Q1970 1937 1970 1542Q1977 1471 1941 1359Q1870 1138 1659 949Q1646 931 1569 911Q1493 892 1378.50 883Q1264 874 1109 874L1109 188Q1109 146 1133 110.50Q1157 75 1199 44Q1242 13 1282 0L699 0Q739 13 782 44Q824 75 848 110.50Q872 146 872 188L872 1847Q872 1889 848 1924Q824 1959 782 1990L1109 2035Z"  horiz-adv-x="1974" vert-adv-y="2048"  />

      
      <glyph glyph-name="uni0425" unicode="&#x0425;" d="M974 1080L1513 178Q1530 86 1602 34Q1640 7 1672 0L1127 0Q1244 55 1255 190L970 618L838 846L706 618L422 190Q428 107 514 45Q556 13 598 0L5 0Q22 4 39 12.50Q56 21 75 34Q147 86 164 178L713 1063L283 1870Q266 1962 194 2014Q175 2027 158 2035.50Q141 2044 124 2048L717 2048Q675 2034 633 2003Q547 1941 541 1859L849 1303L850 1301L851 1303L1136 1859Q1130 1941 1044 2003Q1002 2034 960 2048L1553 2048Q1521 2041 1483 2014Q1411 1962 1394 1870L974 1080Z"  horiz-adv-x="1677" vert-adv-y="2048"  />

      
      <glyph glyph-name="uni0426" unicode="&#x0426;" d="M1701 142L1701-193Q1694-173 1682.50-152Q1671-131 1656-110Q1640-89 1623.50-69Q1607-49 1589-33.50Q1571-18 1552-9Q1533 0 1512 0L864 0Q850 0 836.50 11Q823 22 810.50 37.50Q798 53 786 69.50Q774 86 763 96.50Q752 107 741 108.50Q730 110 720 96Q689 54 675 13L675 142L1512 142L1701 142M497 45Q540 13 581 0L-5 0Q36 14 77 45Q120 76 144 111.50Q168 147 168 189L168 1859Q168 1901 144 1936.50Q120 1972 77 2003Q36 2034-5 2048L581 2048Q540 2034 497 2003Q455 1972 431 1936.50Q407 1901 407 1859L407 142L1233 142L1233 1859Q1233 1901 1209 1936.50Q1185 1972 1143 2003Q1099 2034 1059 2048L1646 2048Q1605 2034 1563 2003Q1520 1972 1496 1936.50Q1472 1901 1472 1859L1472 189L1472 45L1472 0L1059 0Q1099 13 1143 45Q1164 60 1180.50 76.50Q1197 93 1209 103Q1221 113 1227 111.50Q1233 110 1233 89L1233 0L407 0L497 45Z"  horiz-adv-x="1701" vert-adv-y="2048"  />

      
      <glyph glyph-name="uni0427" unicode="&#x0427;" d="M1362 814Q1310 773 1261 745.50Q1212 718 1160 701Q1108 684 1049.50 677Q991 670 920 670Q612 670 398 812Q136 988 136 1320L137 1929Q130 1961 111 1984.50Q92 2008 61 2026Q45 2034 29.50 2040Q14 2046 0 2048L512 2048Q474 2039 439 2018Q366 1978 360 1922L358 1508L357 1342Q355 1091 448 943Q541 795 729 758L781 747Q796 745 810.50 743Q825 741 839 740L925 736Q945 737 963 738Q981 739 995 741L1047 747Q1090 753 1120 761.50Q1150 770 1173.50 784Q1197 798 1216.50 818Q1236 838 1259 866L1362 814M1442 1859L1442 189Q1442 147 1466 111.50Q1490 76 1532 45Q1575 13 1616 0L1029 0Q1070 14 1112 45Q1155 76 1179 111.50Q1203 147 1203 189L1203 1859Q1203 1901 1179 1936.50Q1155 1972 1112 2003Q1070 2034 1029 2048L1616 2048Q1575 2034 1532 2003Q1490 1972 1466 1936.50Q1442 1901 1442 1859Z"  horiz-adv-x="1616" vert-adv-y="2048"  />

      
      <glyph glyph-name="uni0428" unicode="&#x0428;" d="M1537 1859L1537 99Q1537 78 1543 73Q1549 68 1561 67Q1573 66 1590 63Q1607 60 1628 45Q1670 14 1711 0L1124 0Q1164 13 1208 45Q1229 60 1245.50 78.50Q1262 97 1274 108Q1286 119 1292 119.50Q1298 120 1298 99L1298 0L412 0L412 59Q412 80 418 86Q424 92 436 88Q448 84 464.50 72Q481 60 502 45Q545 13 586 0L0 0Q41 14 82 45Q125 76 149 111.50Q173 147 173 189L173 1859Q173 1901 149 1936.50Q125 1972 82 2003Q41 2034 0 2048L586 2048Q545 2034 502 2003Q460 1972 436 1936.50Q412 1901 412 1859L412 142L1298 142L1298 1859Q1298 1901 1274 1936.50Q1250 1972 1208 2003Q1164 2034 1124 2048L1711 2048Q1670 2034 1628 2003Q1585 1972 1561 1936.50Q1537 1901 1537 1859M2663 1859L2663 189Q2663 147 2687 111.50Q2711 76 2754 45Q2796 14 2837 0L2250 0Q2290 13 2334 45Q2355 60 2371.50 78.50Q2388 97 2400 108Q2412 119 2418 119.50Q2424 120 2424 99L2424 0L1538 0L1538 99Q1538 120 1544 119.50Q1550 119 1562 108Q1574 97 1590.50 78.50Q1607 60 1628 45Q1671 13 1712 0L1125 0Q1166 14 1208 45Q1229 60 1246 63Q1263 66 1275 67Q1287 68 1293 73Q1299 78 1299 99L1299 1859Q1299 1901 1275 1936.50Q1251 1972 1208 2003Q1166 2034 1125 2048L1712 2048Q1671 2034 1628 2003Q1586 1972 1562 1936.50Q1538 1901 1538 1859L1538 142L2424 142L2424 1859Q2424 1901 2400 1936.50Q2376 1972 2334 2003Q2290 2034 2250 2048L2837 2048Q2796 2034 2754 2003Q2711 1972 2687 1936.50Q2663 1901 2663 1859Z"  horiz-adv-x="2837" vert-adv-y="2048"  />

      
      <glyph glyph-name="uni0429" unicode="&#x0429;" d="M1538 1859L1538 99Q1538 78 1544 73Q1550 68 1562 67Q1574 66 1591 63Q1608 60 1629 45Q1671 14 1712 0L1125 0Q1165 13 1209 45Q1230 60 1246.50 78.50Q1263 97 1275 108Q1287 119 1293 119.50Q1299 120 1299 99L1299 0L413 0L413 59Q413 80 419 86Q425 92 437 88Q449 84 465.50 72Q482 60 503 45Q546 13 587 0L0 0Q41 14 83 45Q126 76 150 111.50Q174 147 174 189L174 1859Q174 1901 150 1936.50Q126 1972 83 2003Q41 2034 0 2048L587 2048Q546 2034 503 2003Q461 1972 437 1936.50Q413 1901 413 1859L413 142L1299 142L1299 1859Q1299 1901 1275 1936.50Q1251 1972 1209 2003Q1165 2034 1125 2048L1712 2048Q1671 2034 1629 2003Q1586 1972 1562 1936.50Q1538 1901 1538 1859M2251 0Q2291 13 2335 45Q2349 55 2379 74Q2409 93 2445.50 114.50Q2482 136 2520.50 157Q2559 178 2591 191.50Q2623 205 2643.50 208Q2664 211 2664 197L2664 0L1539 0L1539 99Q1539 120 1545 119.50Q1551 119 1563 108Q1575 97 1591.50 78.50Q1608 60 1629 45Q1672 13 1713 0L1126 0Q1167 14 1209 45Q1230 60 1247 63Q1264 66 1276 67Q1288 68 1294 73Q1300 78 1300 99L1300 1859Q1300 1901 1276 1936.50Q1252 1972 1209 2003Q1167 2034 1126 2048L1713 2048Q1672 2034 1629 2003Q1587 1972 1563 1936.50Q1539 1901 1539 1859L1539 142L2425 142L2425 1859Q2425 1901 2401 1936.50Q2377 1972 2335 2003Q2291 2034 2251 2048L2838 2048Q2797 2034 2755 2003Q2712 1972 2688 1936.50Q2664 1901 2664 1859L2664 0L2742 0Q2763 0 2782-9Q2801-18 2819-33.50Q2837-49 2853.50-69Q2870-89 2886-110Q2901-131 2912.50-152Q2924-173 2931-193L2931 141L2665 141L2251 0Z"  horiz-adv-x="2934" vert-adv-y="2048"  />

      
      <glyph glyph-name="uni042A" unicode="&#x042A;" d="M1341 687Q1377 575 1370 504Q1370 109 939 20Q724-22 509 11L99 11Q140 25 182 56Q224 87 248 122Q272 157 272 199L272 1768Q272 1792 260.50 1816Q249 1840 234 1860.50Q219 1881 204 1895.50Q189 1910 181 1916Q170 1923 145 1930Q120 1937 91.50 1942.50Q63 1948 37.50 1951.50Q12 1955 0 1956L0 2046L682 2046Q642 2033 599 2002Q557 1971 533 1935.50Q509 1900 509 1858L509 1172Q664 1172 778.50 1163Q893 1154 969 1135Q1046 1115 1059 1097Q1270 908 1341 687M509 1029Q513 707 515 506.50Q517 306 517 227Q517 118 562 99Q581 91 725 91Q870 91 987 214Q1130 366 1130 630Q1130 873 991 975Q956 1001 921 1015Q886 1029 851 1029L509 1029L509 1029Z"  horiz-adv-x="1371" vert-adv-y="2048"  />

      
      </font>
</defs>
</svg>
