<svg width="38" height="29" viewBox="0 0 38 29" fill="none" xmlns="http://www.w3.org/2000/svg">
<path d="M31.75 2.375C35.875 8.5 37.9375 15.375 37.1875 23.3125C37.1875 23.3125 37.1875 23.375 37.125 23.375C34.375 25.4375 31.25 27 27.9375 28C27.875 28.0625 27.875 28 27.8125 28C27.125 27 26.5 26 25.9375 24.9375C25.9375 24.875 25.9375 24.875 25.9375 24.8125L26 24.75C27 24.375 27.9375 23.9375 28.875 23.375C28.875 23.375 28.9375 23.375 28.9375 23.3125C28.9375 23.25 28.9375 23.25 28.875 23.1875C28.6875 23.0625 28.5 22.9375 28.3125 22.75C28.25 22.75 28.25 22.75 28.1875 22.75C22.25 25.5 15.75 25.5 9.75 22.75C9.6875 22.75 9.625 22.75 9.625 22.75C9.4375 22.9375 9.25 23.0625 9.0625 23.1875C9 23.25 9 23.25 9 23.3125C9 23.375 9 23.375 9.0625 23.375C9.9375 23.9375 10.9375 24.375 11.9375 24.75C11.9375 24.75 11.9375 24.8125 12 24.8125C12 24.875 12 24.875 12 24.9375C11.4375 26 10.8125 27 10.125 28C10.0625 28 10 28.0625 10 28C6.6875 27 3.5625 25.4375 0.8125 23.375C0.75 23.375 0.75 23.3125 0.75 23.3125C0.125 16.4375 1.4375 9.5 6.1875 2.375C6.1875 2.375 6.1875 2.375 6.25 2.375C8.625 1.25 11.125 0.5 13.6875 0.0625C13.75 0 13.8125 0.0625 13.8125 0.0625C14.1875 0.6875 14.5 1.375 14.75 2C17.5625 1.5625 20.375 1.5625 23.1875 2C23.4375 1.375 23.75 0.6875 24.125 0.0625C24.125 0.0625 24.1875 0 24.25 0.0625C26.8125 0.5 29.3125 1.25 31.6875 2.375C31.75 2.375 31.75 2.375 31.75 2.375ZM12.875 19.125C14.6875 19.125 16.1875 17.4375 16.1875 15.4375C16.1875 13.375 14.75 11.75 12.875 11.75C11.0625 11.75 9.5625 13.375 9.5625 15.4375C9.5625 17.4375 11.0625 19.125 12.875 19.125ZM25.0625 19.125C26.9375 19.125 28.375 17.4375 28.375 15.4375C28.4375 13.375 26.9375 11.75 25.0625 11.75C23.25 11.75 21.8125 13.375 21.8125 15.4375C21.8125 17.4375 23.25 19.125 25.0625 19.125Z" fill="white"/>
</svg>
