<svg width="31" height="32" viewBox="0 0 31 32" fill="none" xmlns="http://www.w3.org/2000/svg">
<path d="M15.5 0.5C24 0.5 31 7.5 31 16C31 24.5625 24 31.5 15.5 31.5C6.9375 31.5 0 24.5625 0 16C0 7.5 6.9375 0.5 15.5 0.5ZM22.625 11.0625C22.6875 10.875 22.6875 10.6875 22.625 10.4375C22.625 10.3125 22.5 10.125 22.4375 10.0625C22.25 9.875 21.9375 9.875 21.8125 9.875C21.25 9.875 20.3125 10.1875 16 12C14.5 12.625 11.5 13.875 7 15.875C6.25 16.1875 5.875 16.4375 5.8125 16.75C5.75 17.25 6.5625 17.4375 7.5 17.75C8.3125 18 9.375 18.3125 9.9375 18.3125C10.4375 18.3125 11 18.125 11.625 17.6875C15.8125 14.8125 18 13.375 18.125 13.375C18.25 13.375 18.375 13.3125 18.4375 13.375C18.5625 13.5 18.5625 13.625 18.5 13.6875C18.4375 14 14.5 17.625 14.25 17.875C13.375 18.75 12.375 19.3125 13.9375 20.3125C15.25 21.1875 16 21.75 17.375 22.625C18.25 23.1875 18.9375 23.875 19.8125 23.8125C20.25 23.75 20.6875 23.375 20.875 22.1875C21.4375 19.5 22.4375 13.5 22.625 11.0625Z" fill="white"/>
</svg>
