<svg width="28" height="28" viewBox="0 0 28 28" fill="none" xmlns="http://www.w3.org/2000/svg">
<path d="M1.9375 2C3.875 0 7.0625 0 13.4375 0H14.5C20.875 0 24.0625 0 26 2C28 3.9375 28 7.125 28 13.5V14.5625C28 20.9375 28 24.125 26 26.0625C24.0625 28 20.875 28 14.5 28H13.4375C7.0625 28 3.875 28 1.9375 26.0625C0 24.125 0 20.9375 0 14.5625V13.5C0 7.125 0 3.9375 1.9375 2ZM4.6875 8.5625C4.875 15.8125 8.5 20.1875 14.875 20.1875H15.25V16.0625C16.375 16.1875 17.4375 16.625 18.25 17.375C19.125 18.125 19.75 19.125 20.0625 20.1875H23.375C23.0625 18.9375 22.4375 17.75 21.625 16.75C20.75 15.75 19.75 14.9375 18.5625 14.375C19.625 13.75 20.5 12.875 21.25 11.875C21.9375 10.875 22.4375 9.75 22.6875 8.5625H19.6875C19 10.875 17.0625 12.9375 15.25 13.125V8.5625H12.25V16.625C10.375 16.125 8 13.875 7.875 8.5625H4.6875Z" fill="white"/>
</svg>
